<mxfile host="app.diagrams.net" modified="2020-06-26T14:20:59.040Z" agent="5.0 (Windows NT 10.0; Win64; x64) AppleWebKit/537.36 (KHTML, like Gecko) Chrome/83.0.4103.116 Safari/537.36" etag="FatbXdphsktrBrzYRqAx" version="13.3.5" type="github">
  <diagram id="c4acf3e9-155e-7222-9cf6-157b1a14988f" name="Page-1">
    <mxGraphModel dx="3283" dy="2223" grid="0" gridSize="10" guides="1" tooltips="1" connect="1" arrows="1" fold="1" page="0" pageScale="1" pageWidth="850" pageHeight="1100" background="#ffffff" math="0" shadow="0">
      <root>
        <mxCell id="0" />
        <mxCell id="1" parent="0" />
        <mxCell id="a1xo2FPNcT9_WRo7eFol-3" value="" style="shape=folder;fontStyle=1;spacingTop=10;tabWidth=40;tabHeight=14;tabPosition=left;html=1;" parent="1" vertex="1">
          <mxGeometry x="-510" y="-924" width="1904" height="1410" as="geometry" />
        </mxCell>
        <mxCell id="l6k8qDA1Fq8a3DRyq_wM-55" value="Worker" style="swimlane;fontStyle=1;align=center;verticalAlign=top;childLayout=stackLayout;horizontal=1;startSize=26;horizontalStack=0;resizeParent=1;resizeParentMax=0;resizeLast=0;collapsible=1;marginBottom=0;fillColor=none;" parent="1" vertex="1">
          <mxGeometry x="1063" y="-882" width="230" height="606" as="geometry" />
        </mxCell>
        <mxCell id="l6k8qDA1Fq8a3DRyq_wM-56" value="- ID: int" style="text;strokeColor=none;fillColor=none;align=left;verticalAlign=top;spacingLeft=4;spacingRight=4;overflow=hidden;rotatable=0;points=[[0,0.5],[1,0.5]];portConstraint=eastwest;" parent="l6k8qDA1Fq8a3DRyq_wM-55" vertex="1">
          <mxGeometry y="26" width="230" height="26" as="geometry" />
        </mxCell>
        <mxCell id="l6k8qDA1Fq8a3DRyq_wM-59" value="- IDplayer: String&#xa;" style="text;strokeColor=none;fillColor=none;align=left;verticalAlign=top;spacingLeft=4;spacingRight=4;overflow=hidden;rotatable=0;points=[[0,0.5],[1,0.5]];portConstraint=eastwest;" parent="l6k8qDA1Fq8a3DRyq_wM-55" vertex="1">
          <mxGeometry y="52" width="230" height="26" as="geometry" />
        </mxCell>
        <mxCell id="l6k8qDA1Fq8a3DRyq_wM-60" value="- position : Coordinate" style="text;strokeColor=none;fillColor=none;align=left;verticalAlign=top;spacingLeft=4;spacingRight=4;overflow=hidden;rotatable=0;points=[[0,0.5],[1,0.5]];portConstraint=eastwest;" parent="l6k8qDA1Fq8a3DRyq_wM-55" vertex="1">
          <mxGeometry y="78" width="230" height="26" as="geometry" />
        </mxCell>
        <mxCell id="Bn6dSkrqQOUkgblqPXmy-68" value="- prev_position : Coordinate" style="text;strokeColor=none;fillColor=none;align=left;verticalAlign=top;spacingLeft=4;spacingRight=4;overflow=hidden;rotatable=0;points=[[0,0.5],[1,0.5]];portConstraint=eastwest;" parent="l6k8qDA1Fq8a3DRyq_wM-55" vertex="1">
          <mxGeometry y="104" width="230" height="26" as="geometry" />
        </mxCell>
        <mxCell id="Bn6dSkrqQOUkgblqPXmy-69" value="- moved : boolean" style="text;strokeColor=none;fillColor=none;align=left;verticalAlign=top;spacingLeft=4;spacingRight=4;overflow=hidden;rotatable=0;points=[[0,0.5],[1,0.5]];portConstraint=eastwest;" parent="l6k8qDA1Fq8a3DRyq_wM-55" vertex="1">
          <mxGeometry y="130" width="230" height="26" as="geometry" />
        </mxCell>
        <mxCell id="Bn6dSkrqQOUkgblqPXmy-70" value="- built : boolean" style="text;strokeColor=none;fillColor=none;align=left;verticalAlign=top;spacingLeft=4;spacingRight=4;overflow=hidden;rotatable=0;points=[[0,0.5],[1,0.5]];portConstraint=eastwest;" parent="l6k8qDA1Fq8a3DRyq_wM-55" vertex="1">
          <mxGeometry y="156" width="230" height="26" as="geometry" />
        </mxCell>
        <mxCell id="l6k8qDA1Fq8a3DRyq_wM-57" value="" style="line;strokeWidth=1;fillColor=none;align=left;verticalAlign=middle;spacingTop=-1;spacingLeft=3;spacingRight=3;rotatable=0;labelPosition=right;points=[];portConstraint=eastwest;" parent="l6k8qDA1Fq8a3DRyq_wM-55" vertex="1">
          <mxGeometry y="182" width="230" height="8" as="geometry" />
        </mxCell>
        <mxCell id="l6k8qDA1Fq8a3DRyq_wM-58" value="+ Worker(int, String)" style="text;strokeColor=none;fillColor=none;align=left;verticalAlign=top;spacingLeft=4;spacingRight=4;overflow=hidden;rotatable=0;points=[[0,0.5],[1,0.5]];portConstraint=eastwest;" parent="l6k8qDA1Fq8a3DRyq_wM-55" vertex="1">
          <mxGeometry y="190" width="230" height="26" as="geometry" />
        </mxCell>
        <mxCell id="l6k8qDA1Fq8a3DRyq_wM-61" value="+ getPosition() : Coordinate" style="text;strokeColor=none;fillColor=none;align=left;verticalAlign=top;spacingLeft=4;spacingRight=4;overflow=hidden;rotatable=0;points=[[0,0.5],[1,0.5]];portConstraint=eastwest;" parent="l6k8qDA1Fq8a3DRyq_wM-55" vertex="1">
          <mxGeometry y="216" width="230" height="26" as="geometry" />
        </mxCell>
        <mxCell id="l6k8qDA1Fq8a3DRyq_wM-62" value="+ getID() : int" style="text;strokeColor=none;fillColor=none;align=left;verticalAlign=top;spacingLeft=4;spacingRight=4;overflow=hidden;rotatable=0;points=[[0,0.5],[1,0.5]];portConstraint=eastwest;" parent="l6k8qDA1Fq8a3DRyq_wM-55" vertex="1">
          <mxGeometry y="242" width="230" height="26" as="geometry" />
        </mxCell>
        <mxCell id="l6k8qDA1Fq8a3DRyq_wM-63" value="+ getIDplayer(): String" style="text;strokeColor=none;fillColor=none;align=left;verticalAlign=top;spacingLeft=4;spacingRight=4;overflow=hidden;rotatable=0;points=[[0,0.5],[1,0.5]];portConstraint=eastwest;" parent="l6k8qDA1Fq8a3DRyq_wM-55" vertex="1">
          <mxGeometry y="268" width="230" height="26" as="geometry" />
        </mxCell>
        <mxCell id="Bn6dSkrqQOUkgblqPXmy-71" value="+ getPrevPosition() : Coordinate" style="text;strokeColor=none;fillColor=none;align=left;verticalAlign=top;spacingLeft=4;spacingRight=4;overflow=hidden;rotatable=0;points=[[0,0.5],[1,0.5]];portConstraint=eastwest;" parent="l6k8qDA1Fq8a3DRyq_wM-55" vertex="1">
          <mxGeometry y="294" width="230" height="26" as="geometry" />
        </mxCell>
        <mxCell id="9p3l-YV2BuwI8JY0fFO7-9" value="+ getMoved() : boolean" style="text;strokeColor=none;fillColor=none;align=left;verticalAlign=top;spacingLeft=4;spacingRight=4;overflow=hidden;rotatable=0;points=[[0,0.5],[1,0.5]];portConstraint=eastwest;" parent="l6k8qDA1Fq8a3DRyq_wM-55" vertex="1">
          <mxGeometry y="320" width="230" height="26" as="geometry" />
        </mxCell>
        <mxCell id="9p3l-YV2BuwI8JY0fFO7-10" value="+ getBuilt() : boolean" style="text;strokeColor=none;fillColor=none;align=left;verticalAlign=top;spacingLeft=4;spacingRight=4;overflow=hidden;rotatable=0;points=[[0,0.5],[1,0.5]];portConstraint=eastwest;" parent="l6k8qDA1Fq8a3DRyq_wM-55" vertex="1">
          <mxGeometry y="346" width="230" height="26" as="geometry" />
        </mxCell>
        <mxCell id="N4arSja67GPcpw6rZ1iJ-1" value="+ setPosition() : void" style="text;strokeColor=none;fillColor=none;align=left;verticalAlign=top;spacingLeft=4;spacingRight=4;overflow=hidden;rotatable=0;points=[[0,0.5],[1,0.5]];portConstraint=eastwest;" parent="l6k8qDA1Fq8a3DRyq_wM-55" vertex="1">
          <mxGeometry y="372" width="230" height="26" as="geometry" />
        </mxCell>
        <mxCell id="9p3l-YV2BuwI8JY0fFO7-6" value="+ setPrevPosition() : void" style="text;strokeColor=none;fillColor=none;align=left;verticalAlign=top;spacingLeft=4;spacingRight=4;overflow=hidden;rotatable=0;points=[[0,0.5],[1,0.5]];portConstraint=eastwest;" parent="l6k8qDA1Fq8a3DRyq_wM-55" vertex="1">
          <mxGeometry y="398" width="230" height="26" as="geometry" />
        </mxCell>
        <mxCell id="9p3l-YV2BuwI8JY0fFO7-7" value="+ setID(int) : void" style="text;strokeColor=none;fillColor=none;align=left;verticalAlign=top;spacingLeft=4;spacingRight=4;overflow=hidden;rotatable=0;points=[[0,0.5],[1,0.5]];portConstraint=eastwest;" parent="l6k8qDA1Fq8a3DRyq_wM-55" vertex="1">
          <mxGeometry y="424" width="230" height="26" as="geometry" />
        </mxCell>
        <mxCell id="Bn6dSkrqQOUkgblqPXmy-72" value="+ changeMoved(boolean) : void" style="text;strokeColor=none;fillColor=none;align=left;verticalAlign=top;spacingLeft=4;spacingRight=4;overflow=hidden;rotatable=0;points=[[0,0.5],[1,0.5]];portConstraint=eastwest;" parent="l6k8qDA1Fq8a3DRyq_wM-55" vertex="1">
          <mxGeometry y="450" width="230" height="26" as="geometry" />
        </mxCell>
        <mxCell id="9p3l-YV2BuwI8JY0fFO7-8" value="+ setIDPlayer(String) : void" style="text;strokeColor=none;fillColor=none;align=left;verticalAlign=top;spacingLeft=4;spacingRight=4;overflow=hidden;rotatable=0;points=[[0,0.5],[1,0.5]];portConstraint=eastwest;" parent="l6k8qDA1Fq8a3DRyq_wM-55" vertex="1">
          <mxGeometry y="476" width="230" height="26" as="geometry" />
        </mxCell>
        <mxCell id="Bn6dSkrqQOUkgblqPXmy-73" value="+ changeBuilt(boolean) : void" style="text;strokeColor=none;fillColor=none;align=left;verticalAlign=top;spacingLeft=4;spacingRight=4;overflow=hidden;rotatable=0;points=[[0,0.5],[1,0.5]];portConstraint=eastwest;" parent="l6k8qDA1Fq8a3DRyq_wM-55" vertex="1">
          <mxGeometry y="502" width="230" height="26" as="geometry" />
        </mxCell>
        <mxCell id="Bn6dSkrqQOUkgblqPXmy-74" value="+ canLevelUp(Match) : boolean" style="text;strokeColor=none;fillColor=none;align=left;verticalAlign=top;spacingLeft=4;spacingRight=4;overflow=hidden;rotatable=0;points=[[0,0.5],[1,0.5]];portConstraint=eastwest;" parent="l6k8qDA1Fq8a3DRyq_wM-55" vertex="1">
          <mxGeometry y="528" width="230" height="26" as="geometry" />
        </mxCell>
        <mxCell id="9p3l-YV2BuwI8JY0fFO7-5" value="+ canBuild(Match) : boolean" style="text;strokeColor=none;fillColor=none;align=left;verticalAlign=top;spacingLeft=4;spacingRight=4;overflow=hidden;rotatable=0;points=[[0,0.5],[1,0.5]];portConstraint=eastwest;" parent="l6k8qDA1Fq8a3DRyq_wM-55" vertex="1">
          <mxGeometry y="554" width="230" height="26" as="geometry" />
        </mxCell>
        <mxCell id="9p3l-YV2BuwI8JY0fFO7-11" value="+ toString() : String" style="text;strokeColor=none;fillColor=none;align=left;verticalAlign=top;spacingLeft=4;spacingRight=4;overflow=hidden;rotatable=0;points=[[0,0.5],[1,0.5]];portConstraint=eastwest;" parent="l6k8qDA1Fq8a3DRyq_wM-55" vertex="1">
          <mxGeometry y="580" width="230" height="26" as="geometry" />
        </mxCell>
        <mxCell id="a1xo2FPNcT9_WRo7eFol-1" value="" style="shape=folder;fontStyle=1;spacingTop=10;tabWidth=40;tabHeight=14;tabPosition=left;html=1;" parent="1" vertex="1">
          <mxGeometry x="-580" y="585" width="2513" height="1428" as="geometry" />
        </mxCell>
        <mxCell id="qDY2ekXkH5HiKyhQ4_CK-8" value="&lt;p style=&quot;margin: 0px ; margin-top: 4px ; text-align: center&quot;&gt;&lt;i&gt;&amp;lt;&amp;lt;Interface&amp;gt;&amp;gt;&lt;/i&gt;&lt;br&gt;&lt;b&gt;Turn&lt;/b&gt;&lt;/p&gt;&lt;hr size=&quot;1&quot;&gt;&lt;p style=&quot;margin: 0px ; margin-left: 4px&quot;&gt;&lt;br&gt;&lt;/p&gt;&lt;hr size=&quot;1&quot;&gt;&lt;p style=&quot;margin: 0px ; margin-left: 4px&quot;&gt;+ move() : boolean&lt;/p&gt;&lt;p style=&quot;margin: 0px ; margin-left: 4px&quot;&gt;+ build() : boolean&lt;/p&gt;&lt;p style=&quot;margin: 0px ; margin-left: 4px&quot;&gt;+ winCondition () : boolean&lt;/p&gt;&lt;p style=&quot;margin: 0px ; margin-left: 4px&quot;&gt;+ limited_move() : boolean&lt;/p&gt;&lt;p style=&quot;margin: 0px ; margin-left: 4px&quot;&gt;+ cantmove() : boolean&lt;/p&gt;" style="verticalAlign=top;align=left;overflow=fill;fontSize=12;fontFamily=Helvetica;html=1;" parent="1" vertex="1">
          <mxGeometry x="869" y="650" width="204" height="148" as="geometry" />
        </mxCell>
        <mxCell id="l6k8qDA1Fq8a3DRyq_wM-72" value="Coordinate" style="swimlane;fontStyle=1;align=center;verticalAlign=top;childLayout=stackLayout;horizontal=1;startSize=26;horizontalStack=0;resizeParent=1;resizeParentMax=0;resizeLast=0;collapsible=1;marginBottom=0;fillColor=none;" parent="1" vertex="1">
          <mxGeometry x="543" y="-837" width="250" height="268" as="geometry" />
        </mxCell>
        <mxCell id="l6k8qDA1Fq8a3DRyq_wM-77" value="- y : int" style="text;strokeColor=none;fillColor=none;align=left;verticalAlign=top;spacingLeft=4;spacingRight=4;overflow=hidden;rotatable=0;points=[[0,0.5],[1,0.5]];portConstraint=eastwest;" parent="l6k8qDA1Fq8a3DRyq_wM-72" vertex="1">
          <mxGeometry y="26" width="250" height="26" as="geometry" />
        </mxCell>
        <mxCell id="l6k8qDA1Fq8a3DRyq_wM-73" value="- x : int" style="text;strokeColor=none;fillColor=none;align=left;verticalAlign=top;spacingLeft=4;spacingRight=4;overflow=hidden;rotatable=0;points=[[0,0.5],[1,0.5]];portConstraint=eastwest;" parent="l6k8qDA1Fq8a3DRyq_wM-72" vertex="1">
          <mxGeometry y="52" width="250" height="26" as="geometry" />
        </mxCell>
        <mxCell id="l6k8qDA1Fq8a3DRyq_wM-74" value="" style="line;strokeWidth=1;fillColor=none;align=left;verticalAlign=middle;spacingTop=-1;spacingLeft=3;spacingRight=3;rotatable=0;labelPosition=right;points=[];portConstraint=eastwest;" parent="l6k8qDA1Fq8a3DRyq_wM-72" vertex="1">
          <mxGeometry y="78" width="250" height="8" as="geometry" />
        </mxCell>
        <mxCell id="l6k8qDA1Fq8a3DRyq_wM-78" value="+ Coordinate( int, int) " style="text;strokeColor=none;fillColor=none;align=left;verticalAlign=top;spacingLeft=4;spacingRight=4;overflow=hidden;rotatable=0;points=[[0,0.5],[1,0.5]];portConstraint=eastwest;" parent="l6k8qDA1Fq8a3DRyq_wM-72" vertex="1">
          <mxGeometry y="86" width="250" height="26" as="geometry" />
        </mxCell>
        <mxCell id="l6k8qDA1Fq8a3DRyq_wM-75" value="+ getX() : int" style="text;strokeColor=none;fillColor=none;align=left;verticalAlign=top;spacingLeft=4;spacingRight=4;overflow=hidden;rotatable=0;points=[[0,0.5],[1,0.5]];portConstraint=eastwest;" parent="l6k8qDA1Fq8a3DRyq_wM-72" vertex="1">
          <mxGeometry y="112" width="250" height="26" as="geometry" />
        </mxCell>
        <mxCell id="l6k8qDA1Fq8a3DRyq_wM-76" value="+ getY() : int" style="text;strokeColor=none;fillColor=none;align=left;verticalAlign=top;spacingLeft=4;spacingRight=4;overflow=hidden;rotatable=0;points=[[0,0.5],[1,0.5]];portConstraint=eastwest;" parent="l6k8qDA1Fq8a3DRyq_wM-72" vertex="1">
          <mxGeometry y="138" width="250" height="26" as="geometry" />
        </mxCell>
        <mxCell id="l6k8qDA1Fq8a3DRyq_wM-79" value="+ isNear( Coordinate, Coordinate) : boolean" style="text;strokeColor=none;fillColor=none;align=left;verticalAlign=top;spacingLeft=4;spacingRight=4;overflow=hidden;rotatable=0;points=[[0,0.5],[1,0.5]];portConstraint=eastwest;" parent="l6k8qDA1Fq8a3DRyq_wM-72" vertex="1">
          <mxGeometry y="164" width="250" height="26" as="geometry" />
        </mxCell>
        <mxCell id="Bn6dSkrqQOUkgblqPXmy-18" value="+ equals(Object) : boolean" style="text;strokeColor=none;fillColor=none;align=left;verticalAlign=top;spacingLeft=4;spacingRight=4;overflow=hidden;rotatable=0;points=[[0,0.5],[1,0.5]];portConstraint=eastwest;" parent="l6k8qDA1Fq8a3DRyq_wM-72" vertex="1">
          <mxGeometry y="190" width="250" height="26" as="geometry" />
        </mxCell>
        <mxCell id="Bn6dSkrqQOUkgblqPXmy-19" value="+ nextCoordinate(Coordinate) : Coordinate" style="text;strokeColor=none;fillColor=none;align=left;verticalAlign=top;spacingLeft=4;spacingRight=4;overflow=hidden;rotatable=0;points=[[0,0.5],[1,0.5]];portConstraint=eastwest;" parent="l6k8qDA1Fq8a3DRyq_wM-72" vertex="1">
          <mxGeometry y="216" width="250" height="26" as="geometry" />
        </mxCell>
        <mxCell id="9p3l-YV2BuwI8JY0fFO7-21" value="+ toString() : String" style="text;strokeColor=none;fillColor=none;align=left;verticalAlign=top;spacingLeft=4;spacingRight=4;overflow=hidden;rotatable=0;points=[[0,0.5],[1,0.5]];portConstraint=eastwest;" parent="l6k8qDA1Fq8a3DRyq_wM-72" vertex="1">
          <mxGeometry y="242" width="250" height="26" as="geometry" />
        </mxCell>
        <mxCell id="l6k8qDA1Fq8a3DRyq_wM-25" value="Box" style="swimlane;fontStyle=1;align=center;verticalAlign=top;childLayout=stackLayout;horizontal=1;startSize=26;horizontalStack=0;resizeParent=1;resizeParentMax=0;resizeLast=0;collapsible=1;marginBottom=0;fillColor=none;" parent="1" vertex="1">
          <mxGeometry x="45.5" y="-867" width="194" height="476" as="geometry" />
        </mxCell>
        <mxCell id="l6k8qDA1Fq8a3DRyq_wM-26" value="- location : Coordinate" style="text;strokeColor=none;fillColor=none;align=left;verticalAlign=top;spacingLeft=4;spacingRight=4;overflow=hidden;rotatable=0;points=[[0,0.5],[1,0.5]];portConstraint=eastwest;" parent="l6k8qDA1Fq8a3DRyq_wM-25" vertex="1">
          <mxGeometry y="26" width="194" height="26" as="geometry" />
        </mxCell>
        <mxCell id="l6k8qDA1Fq8a3DRyq_wM-30" value="- level : int" style="text;strokeColor=none;fillColor=none;align=left;verticalAlign=top;spacingLeft=4;spacingRight=4;overflow=hidden;rotatable=0;points=[[0,0.5],[1,0.5]];portConstraint=eastwest;" parent="l6k8qDA1Fq8a3DRyq_wM-25" vertex="1">
          <mxGeometry y="52" width="194" height="26" as="geometry" />
        </mxCell>
        <mxCell id="l6k8qDA1Fq8a3DRyq_wM-31" value="- empty : boolean" style="text;strokeColor=none;fillColor=none;align=left;verticalAlign=top;spacingLeft=4;spacingRight=4;overflow=hidden;rotatable=0;points=[[0,0.5],[1,0.5]];portConstraint=eastwest;" parent="l6k8qDA1Fq8a3DRyq_wM-25" vertex="1">
          <mxGeometry y="78" width="194" height="26" as="geometry" />
        </mxCell>
        <mxCell id="Bn6dSkrqQOUkgblqPXmy-67" value="- workerBox : Worker" style="text;strokeColor=none;fillColor=none;align=left;verticalAlign=top;spacingLeft=4;spacingRight=4;overflow=hidden;rotatable=0;points=[[0,0.5],[1,0.5]];portConstraint=eastwest;" parent="l6k8qDA1Fq8a3DRyq_wM-25" vertex="1">
          <mxGeometry y="104" width="194" height="26" as="geometry" />
        </mxCell>
        <mxCell id="9p3l-YV2BuwI8JY0fFO7-22" value="- levelledUp : boolean" style="text;strokeColor=none;fillColor=none;align=left;verticalAlign=top;spacingLeft=4;spacingRight=4;overflow=hidden;rotatable=0;points=[[0,0.5],[1,0.5]];portConstraint=eastwest;" parent="l6k8qDA1Fq8a3DRyq_wM-25" vertex="1">
          <mxGeometry y="130" width="194" height="26" as="geometry" />
        </mxCell>
        <mxCell id="l6k8qDA1Fq8a3DRyq_wM-27" value="" style="line;strokeWidth=1;fillColor=none;align=left;verticalAlign=middle;spacingTop=-1;spacingLeft=3;spacingRight=3;rotatable=0;labelPosition=right;points=[];portConstraint=eastwest;" parent="l6k8qDA1Fq8a3DRyq_wM-25" vertex="1">
          <mxGeometry y="156" width="194" height="8" as="geometry" />
        </mxCell>
        <mxCell id="l6k8qDA1Fq8a3DRyq_wM-37" value="+ Box(int, int)" style="text;strokeColor=none;fillColor=none;align=left;verticalAlign=top;spacingLeft=4;spacingRight=4;overflow=hidden;rotatable=0;points=[[0,0.5],[1,0.5]];portConstraint=eastwest;" parent="l6k8qDA1Fq8a3DRyq_wM-25" vertex="1">
          <mxGeometry y="164" width="194" height="26" as="geometry" />
        </mxCell>
        <mxCell id="l6k8qDA1Fq8a3DRyq_wM-32" value="+ getLocation() : Coordinate" style="text;strokeColor=none;fillColor=none;align=left;verticalAlign=top;spacingLeft=4;spacingRight=4;overflow=hidden;rotatable=0;points=[[0,0.5],[1,0.5]];portConstraint=eastwest;" parent="l6k8qDA1Fq8a3DRyq_wM-25" vertex="1">
          <mxGeometry y="190" width="194" height="26" as="geometry" />
        </mxCell>
        <mxCell id="l6k8qDA1Fq8a3DRyq_wM-33" value="+ getLevel() : int" style="text;strokeColor=none;fillColor=none;align=left;verticalAlign=top;spacingLeft=4;spacingRight=4;overflow=hidden;rotatable=0;points=[[0,0.5],[1,0.5]];portConstraint=eastwest;" parent="l6k8qDA1Fq8a3DRyq_wM-25" vertex="1">
          <mxGeometry y="216" width="194" height="26" as="geometry" />
        </mxCell>
        <mxCell id="Bn6dSkrqQOUkgblqPXmy-20" value="+ getWorkerBox() : Worker" style="text;strokeColor=none;fillColor=none;align=left;verticalAlign=top;spacingLeft=4;spacingRight=4;overflow=hidden;rotatable=0;points=[[0,0.5],[1,0.5]];portConstraint=eastwest;" parent="l6k8qDA1Fq8a3DRyq_wM-25" vertex="1">
          <mxGeometry y="242" width="194" height="26" as="geometry" />
        </mxCell>
        <mxCell id="9p3l-YV2BuwI8JY0fFO7-23" value="+ getLevelledUp() : boolean" style="text;strokeColor=none;fillColor=none;align=left;verticalAlign=top;spacingLeft=4;spacingRight=4;overflow=hidden;rotatable=0;points=[[0,0.5],[1,0.5]];portConstraint=eastwest;" parent="l6k8qDA1Fq8a3DRyq_wM-25" vertex="1">
          <mxGeometry y="268" width="194" height="26" as="geometry" />
        </mxCell>
        <mxCell id="l6k8qDA1Fq8a3DRyq_wM-34" value="+ isEmpty() : boolean" style="text;strokeColor=none;fillColor=none;align=left;verticalAlign=top;spacingLeft=4;spacingRight=4;overflow=hidden;rotatable=0;points=[[0,0.5],[1,0.5]];portConstraint=eastwest;" parent="l6k8qDA1Fq8a3DRyq_wM-25" vertex="1">
          <mxGeometry y="294" width="194" height="26" as="geometry" />
        </mxCell>
        <mxCell id="l6k8qDA1Fq8a3DRyq_wM-35" value="+ changeState() : void" style="text;strokeColor=none;fillColor=none;align=left;verticalAlign=top;spacingLeft=4;spacingRight=4;overflow=hidden;rotatable=0;points=[[0,0.5],[1,0.5]];portConstraint=eastwest;" parent="l6k8qDA1Fq8a3DRyq_wM-25" vertex="1">
          <mxGeometry y="320" width="194" height="26" as="geometry" />
        </mxCell>
        <mxCell id="Bn6dSkrqQOUkgblqPXmy-22" value="+ levelDifference(Box) : int" style="text;strokeColor=none;fillColor=none;align=left;verticalAlign=top;spacingLeft=4;spacingRight=4;overflow=hidden;rotatable=0;points=[[0,0.5],[1,0.5]];portConstraint=eastwest;" parent="l6k8qDA1Fq8a3DRyq_wM-25" vertex="1">
          <mxGeometry y="346" width="194" height="26" as="geometry" />
        </mxCell>
        <mxCell id="Bn6dSkrqQOUkgblqPXmy-21" value="+ setWorkerBox(Worker) : void" style="text;strokeColor=none;fillColor=none;align=left;verticalAlign=top;spacingLeft=4;spacingRight=4;overflow=hidden;rotatable=0;points=[[0,0.5],[1,0.5]];portConstraint=eastwest;" parent="l6k8qDA1Fq8a3DRyq_wM-25" vertex="1">
          <mxGeometry y="372" width="194" height="26" as="geometry" />
        </mxCell>
        <mxCell id="l6k8qDA1Fq8a3DRyq_wM-36" value="+ upgradeLevel() : void" style="text;strokeColor=none;fillColor=none;align=left;verticalAlign=top;spacingLeft=4;spacingRight=4;overflow=hidden;rotatable=0;points=[[0,0.5],[1,0.5]];portConstraint=eastwest;" parent="l6k8qDA1Fq8a3DRyq_wM-25" vertex="1">
          <mxGeometry y="398" width="194" height="26" as="geometry" />
        </mxCell>
        <mxCell id="9p3l-YV2BuwI8JY0fFO7-24" value="+ setLevelledUp (boolean) : void" style="text;strokeColor=none;fillColor=none;align=left;verticalAlign=top;spacingLeft=4;spacingRight=4;overflow=hidden;rotatable=0;points=[[0,0.5],[1,0.5]];portConstraint=eastwest;" parent="l6k8qDA1Fq8a3DRyq_wM-25" vertex="1">
          <mxGeometry y="424" width="194" height="26" as="geometry" />
        </mxCell>
        <mxCell id="9p3l-YV2BuwI8JY0fFO7-25" value="+ printEmpty (Match) : String" style="text;strokeColor=none;fillColor=none;align=left;verticalAlign=top;spacingLeft=4;spacingRight=4;overflow=hidden;rotatable=0;points=[[0,0.5],[1,0.5]];portConstraint=eastwest;" parent="l6k8qDA1Fq8a3DRyq_wM-25" vertex="1">
          <mxGeometry y="450" width="194" height="26" as="geometry" />
        </mxCell>
        <mxCell id="Bn6dSkrqQOUkgblqPXmy-191" value="" style="endArrow=block;dashed=1;endFill=0;endSize=12;html=1;exitX=0.5;exitY=0;exitDx=0;exitDy=0;entryX=0;entryY=1;entryDx=0;entryDy=0;" parent="1" source="Bn6dSkrqQOUkgblqPXmy-89" target="qDY2ekXkH5HiKyhQ4_CK-8" edge="1">
          <mxGeometry width="160" relative="1" as="geometry">
            <mxPoint x="633" y="1094" as="sourcePoint" />
            <mxPoint x="793" y="1094" as="targetPoint" />
          </mxGeometry>
        </mxCell>
        <mxCell id="Bn6dSkrqQOUkgblqPXmy-192" value="" style="endArrow=block;dashed=1;endFill=0;endSize=12;html=1;exitX=0.161;exitY=-0.003;exitDx=0;exitDy=0;entryX=1;entryY=1;entryDx=0;entryDy=0;exitPerimeter=0;" parent="1" source="d9iUq7tpXGbD1R2bJNIy-38" target="qDY2ekXkH5HiKyhQ4_CK-8" edge="1">
          <mxGeometry width="160" relative="1" as="geometry">
            <mxPoint x="632.5" y="877" as="sourcePoint" />
            <mxPoint x="793" y="1094" as="targetPoint" />
          </mxGeometry>
        </mxCell>
        <mxCell id="Bn6dSkrqQOUkgblqPXmy-193" value="Extends" style="endArrow=block;endSize=16;endFill=0;html=1;exitX=0.5;exitY=0;exitDx=0;exitDy=0;entryX=0.498;entryY=1.214;entryDx=0;entryDy=0;entryPerimeter=0;" parent="1" source="Bn6dSkrqQOUkgblqPXmy-98" target="d9iUq7tpXGbD1R2bJNIy-48" edge="1">
          <mxGeometry width="160" relative="1" as="geometry">
            <mxPoint x="633" y="1221" as="sourcePoint" />
            <mxPoint x="635.9050000000002" y="1098.7979999999998" as="targetPoint" />
          </mxGeometry>
        </mxCell>
        <mxCell id="Bn6dSkrqQOUkgblqPXmy-194" value="Extends" style="endArrow=block;endSize=16;endFill=0;html=1;exitX=0;exitY=0;exitDx=0;exitDy=0;entryX=0.763;entryY=1.159;entryDx=0;entryDy=0;entryPerimeter=0;" parent="1" source="Bn6dSkrqQOUkgblqPXmy-163" target="Bn6dSkrqQOUkgblqPXmy-101" edge="1">
          <mxGeometry width="160" relative="1" as="geometry">
            <mxPoint x="633" y="1366" as="sourcePoint" />
            <mxPoint x="746" y="1369" as="targetPoint" />
          </mxGeometry>
        </mxCell>
        <mxCell id="Bn6dSkrqQOUkgblqPXmy-195" value="Extends" style="endArrow=block;endSize=16;endFill=0;html=1;entryX=0.549;entryY=1.141;entryDx=0;entryDy=0;entryPerimeter=0;exitX=0.5;exitY=0;exitDx=0;exitDy=0;" parent="1" source="Bn6dSkrqQOUkgblqPXmy-145" target="Bn6dSkrqQOUkgblqPXmy-101" edge="1">
          <mxGeometry width="160" relative="1" as="geometry">
            <mxPoint x="633" y="1366" as="sourcePoint" />
            <mxPoint x="735.1039999999998" y="1388.3960000000002" as="targetPoint" />
          </mxGeometry>
        </mxCell>
        <mxCell id="Bn6dSkrqQOUkgblqPXmy-196" value="Extends" style="endArrow=block;endSize=16;endFill=0;html=1;exitX=1;exitY=0.25;exitDx=0;exitDy=0;entryX=0.209;entryY=1.09;entryDx=0;entryDy=0;entryPerimeter=0;" parent="1" source="Bn6dSkrqQOUkgblqPXmy-127" target="Bn6dSkrqQOUkgblqPXmy-101" edge="1">
          <mxGeometry width="160" relative="1" as="geometry">
            <mxPoint x="633" y="1366" as="sourcePoint" />
            <mxPoint x="632.7269999999999" y="1382" as="targetPoint" />
          </mxGeometry>
        </mxCell>
        <mxCell id="Bn6dSkrqQOUkgblqPXmy-197" value="Extends" style="endArrow=block;endSize=16;endFill=0;html=1;entryX=-0.003;entryY=1.244;entryDx=0;entryDy=0;entryPerimeter=0;exitX=1;exitY=0.25;exitDx=0;exitDy=0;" parent="1" source="Bn6dSkrqQOUkgblqPXmy-154" target="Bn6dSkrqQOUkgblqPXmy-101" edge="1">
          <mxGeometry width="160" relative="1" as="geometry">
            <mxPoint x="633" y="1366" as="sourcePoint" />
            <mxPoint x="543.2890000000002" y="1386.81" as="targetPoint" />
          </mxGeometry>
        </mxCell>
        <mxCell id="Bn6dSkrqQOUkgblqPXmy-198" value="Extends" style="endArrow=block;endSize=16;endFill=0;html=1;entryX=0.402;entryY=1.244;entryDx=0;entryDy=0;exitX=0.5;exitY=0;exitDx=0;exitDy=0;entryPerimeter=0;" parent="1" source="Bn6dSkrqQOUkgblqPXmy-136" target="Bn6dSkrqQOUkgblqPXmy-101" edge="1">
          <mxGeometry width="160" relative="1" as="geometry">
            <mxPoint x="633" y="1366" as="sourcePoint" />
            <mxPoint x="519" y="1369" as="targetPoint" />
          </mxGeometry>
        </mxCell>
        <mxCell id="Bn6dSkrqQOUkgblqPXmy-199" value="Extends" style="endArrow=block;endSize=16;endFill=0;html=1;entryX=0.085;entryY=1.295;entryDx=0;entryDy=0;exitX=1;exitY=0;exitDx=0;exitDy=0;entryPerimeter=0;" parent="1" source="Bn6dSkrqQOUkgblqPXmy-118" target="Bn6dSkrqQOUkgblqPXmy-101" edge="1">
          <mxGeometry width="160" relative="1" as="geometry">
            <mxPoint x="633" y="1366" as="sourcePoint" />
            <mxPoint x="519" y="1343" as="targetPoint" />
          </mxGeometry>
        </mxCell>
        <mxCell id="Bn6dSkrqQOUkgblqPXmy-200" value="Extends" style="endArrow=block;endSize=16;endFill=0;html=1;exitX=1;exitY=0;exitDx=0;exitDy=0;entryX=0;entryY=0.5;entryDx=0;entryDy=0;" parent="1" source="Bn6dSkrqQOUkgblqPXmy-109" target="Bn6dSkrqQOUkgblqPXmy-101" edge="1">
          <mxGeometry width="160" relative="1" as="geometry">
            <mxPoint x="633" y="1366" as="sourcePoint" />
            <mxPoint x="519" y="1317" as="targetPoint" />
          </mxGeometry>
        </mxCell>
        <mxCell id="Bn6dSkrqQOUkgblqPXmy-201" value="Extends" style="endArrow=block;endSize=16;endFill=0;html=1;exitX=0;exitY=0;exitDx=0;exitDy=0;entryX=0.98;entryY=1.247;entryDx=0;entryDy=0;entryPerimeter=0;" parent="1" source="Bn6dSkrqQOUkgblqPXmy-172" target="Bn6dSkrqQOUkgblqPXmy-101" edge="1">
          <mxGeometry width="160" relative="1" as="geometry">
            <mxPoint x="633" y="1366" as="sourcePoint" />
            <mxPoint x="746" y="1343" as="targetPoint" />
          </mxGeometry>
        </mxCell>
        <mxCell id="Bn6dSkrqQOUkgblqPXmy-202" value="Extends" style="endArrow=block;endSize=16;endFill=0;html=1;entryX=1;entryY=0.5;entryDx=0;entryDy=0;exitX=0;exitY=0;exitDx=0;exitDy=0;" parent="1" source="Bn6dSkrqQOUkgblqPXmy-181" target="Bn6dSkrqQOUkgblqPXmy-101" edge="1">
          <mxGeometry width="160" relative="1" as="geometry">
            <mxPoint x="633" y="1366" as="sourcePoint" />
            <mxPoint x="746" y="1317" as="targetPoint" />
          </mxGeometry>
        </mxCell>
        <mxCell id="a1xo2FPNcT9_WRo7eFol-2" value="Controller" style="text;align=center;fontStyle=1;verticalAlign=middle;spacingLeft=3;spacingRight=3;strokeColor=none;rotatable=0;points=[[0,0.5],[1,0.5]];portConstraint=eastwest;" parent="1" vertex="1">
          <mxGeometry x="-573" y="600" width="80" height="26" as="geometry" />
        </mxCell>
        <mxCell id="a1xo2FPNcT9_WRo7eFol-4" value="Model" style="text;align=center;fontStyle=1;verticalAlign=middle;spacingLeft=3;spacingRight=3;strokeColor=none;rotatable=0;points=[[0,0.5],[1,0.5]];portConstraint=eastwest;" parent="1" vertex="1">
          <mxGeometry x="-470" y="-867" width="80" height="26" as="geometry" />
        </mxCell>
        <mxCell id="a1xo2FPNcT9_WRo7eFol-5" value="" style="endArrow=none;html=1;edgeStyle=orthogonalEdgeStyle;exitX=1;exitY=0.5;exitDx=0;exitDy=0;entryX=0;entryY=0.5;entryDx=0;entryDy=0;" parent="1" source="Bn6dSkrqQOUkgblqPXmy-6" target="qDY2ekXkH5HiKyhQ4_CK-8" edge="1">
          <mxGeometry relative="1" as="geometry">
            <mxPoint x="293" y="780" as="sourcePoint" />
            <mxPoint x="453" y="780" as="targetPoint" />
            <Array as="points">
              <mxPoint x="-81" y="997" />
              <mxPoint x="-81" y="735" />
            </Array>
          </mxGeometry>
        </mxCell>
        <mxCell id="a1xo2FPNcT9_WRo7eFol-8" value="" style="endArrow=none;html=1;edgeStyle=orthogonalEdgeStyle;exitX=0.75;exitY=0;exitDx=0;exitDy=0;entryX=0.467;entryY=1.033;entryDx=0;entryDy=0;entryPerimeter=0;" parent="1" source="qDY2ekXkH5HiKyhQ4_CK-49" target="9p3l-YV2BuwI8JY0fFO7-19" edge="1">
          <mxGeometry relative="1" as="geometry">
            <mxPoint x="293" y="288" as="sourcePoint" />
            <mxPoint x="453" y="288" as="targetPoint" />
          </mxGeometry>
        </mxCell>
        <mxCell id="a1xo2FPNcT9_WRo7eFol-12" value="" style="endArrow=diamondThin;endFill=0;endSize=24;html=1;entryX=1;entryY=0.5;entryDx=0;entryDy=0;exitX=-0.012;exitY=-0.038;exitDx=0;exitDy=0;exitPerimeter=0;" parent="1" source="Bn6dSkrqQOUkgblqPXmy-77" target="9p3l-YV2BuwI8JY0fFO7-14" edge="1">
          <mxGeometry width="160" relative="1" as="geometry">
            <mxPoint x="549" y="-103" as="sourcePoint" />
            <mxPoint x="709" y="-103" as="targetPoint" />
          </mxGeometry>
        </mxCell>
        <mxCell id="a1xo2FPNcT9_WRo7eFol-14" value="" style="endArrow=diamondThin;endFill=1;endSize=24;html=1;entryX=0.75;entryY=0;entryDx=0;entryDy=0;exitX=0;exitY=0.5;exitDx=0;exitDy=0;" parent="1" source="l6k8qDA1Fq8a3DRyq_wM-34" target="l6k8qDA1Fq8a3DRyq_wM-19" edge="1">
          <mxGeometry width="160" relative="1" as="geometry">
            <mxPoint x="-110" y="-359" as="sourcePoint" />
            <mxPoint x="50" y="-359" as="targetPoint" />
          </mxGeometry>
        </mxCell>
        <mxCell id="a1xo2FPNcT9_WRo7eFol-15" value="" style="endArrow=none;html=1;edgeStyle=orthogonalEdgeStyle;exitX=1;exitY=0.5;exitDx=0;exitDy=0;entryX=-0.013;entryY=-0.051;entryDx=0;entryDy=0;entryPerimeter=0;" parent="1" source="9p3l-YV2BuwI8JY0fFO7-22" target="l6k8qDA1Fq8a3DRyq_wM-75" edge="1">
          <mxGeometry relative="1" as="geometry">
            <mxPoint x="516" y="-372" as="sourcePoint" />
            <mxPoint x="676" y="-372" as="targetPoint" />
          </mxGeometry>
        </mxCell>
        <mxCell id="a1xo2FPNcT9_WRo7eFol-18" value="" style="endArrow=none;html=1;edgeStyle=orthogonalEdgeStyle;exitX=1;exitY=0.5;exitDx=0;exitDy=0;entryX=0;entryY=0.5;entryDx=0;entryDy=0;" parent="1" source="l6k8qDA1Fq8a3DRyq_wM-75" target="Bn6dSkrqQOUkgblqPXmy-70" edge="1">
          <mxGeometry relative="1" as="geometry">
            <mxPoint x="752" y="-370" as="sourcePoint" />
            <mxPoint x="912" y="-370" as="targetPoint" />
          </mxGeometry>
        </mxCell>
        <mxCell id="a1xo2FPNcT9_WRo7eFol-21" value="" style="endArrow=diamondThin;endFill=0;endSize=24;html=1;entryX=1;entryY=0.5;entryDx=0;entryDy=0;exitX=0;exitY=0.5;exitDx=0;exitDy=0;" parent="1" source="9p3l-YV2BuwI8JY0fFO7-11" target="l6k8qDA1Fq8a3DRyq_wM-86" edge="1">
          <mxGeometry width="160" relative="1" as="geometry">
            <mxPoint x="752" y="-151" as="sourcePoint" />
            <mxPoint x="912" y="-151" as="targetPoint" />
          </mxGeometry>
        </mxCell>
        <mxCell id="a1xo2FPNcT9_WRo7eFol-22" value="" style="endArrow=none;html=1;edgeStyle=orthogonalEdgeStyle;exitX=1;exitY=0.5;exitDx=0;exitDy=0;entryX=0;entryY=0.5;entryDx=0;entryDy=0;" parent="1" source="Bn6dSkrqQOUkgblqPXmy-77" target="zAEnMqXvGMXNLVfm_5Bu-3" edge="1">
          <mxGeometry relative="1" as="geometry">
            <mxPoint x="752" y="-38" as="sourcePoint" />
            <mxPoint x="912" y="-38" as="targetPoint" />
          </mxGeometry>
        </mxCell>
        <mxCell id="a1xo2FPNcT9_WRo7eFol-25" value="" style="endArrow=diamondThin;endFill=0;endSize=24;html=1;entryX=1;entryY=0.5;entryDx=0;entryDy=0;exitX=0;exitY=0.5;exitDx=0;exitDy=0;" parent="1" source="l6k8qDA1Fq8a3DRyq_wM-12" target="l6k8qDA1Fq8a3DRyq_wM-68" edge="1">
          <mxGeometry width="160" relative="1" as="geometry">
            <mxPoint x="752" y="-124" as="sourcePoint" />
            <mxPoint x="912" y="-124" as="targetPoint" />
          </mxGeometry>
        </mxCell>
        <mxCell id="l6k8qDA1Fq8a3DRyq_wM-19" value="Match" style="swimlane;fontStyle=1;align=center;verticalAlign=top;childLayout=stackLayout;horizontal=1;startSize=26;horizontalStack=0;resizeParent=1;resizeParentMax=0;resizeLast=0;collapsible=1;marginBottom=0;fillColor=none;" parent="1" vertex="1">
          <mxGeometry x="-408" y="-517" width="345" height="788" as="geometry" />
        </mxCell>
        <mxCell id="l6k8qDA1Fq8a3DRyq_wM-20" value="- columns : int" style="text;strokeColor=none;fillColor=none;align=left;verticalAlign=top;spacingLeft=4;spacingRight=4;overflow=hidden;rotatable=0;points=[[0,0.5],[1,0.5]];portConstraint=eastwest;" parent="l6k8qDA1Fq8a3DRyq_wM-19" vertex="1">
          <mxGeometry y="26" width="345" height="26" as="geometry" />
        </mxCell>
        <mxCell id="l6k8qDA1Fq8a3DRyq_wM-23" value="- rows : int" style="text;strokeColor=none;fillColor=none;align=left;verticalAlign=top;spacingLeft=4;spacingRight=4;overflow=hidden;rotatable=0;points=[[0,0.5],[1,0.5]];portConstraint=eastwest;" parent="l6k8qDA1Fq8a3DRyq_wM-19" vertex="1">
          <mxGeometry y="52" width="345" height="26" as="geometry" />
        </mxCell>
        <mxCell id="l6k8qDA1Fq8a3DRyq_wM-24" value="- board[][] : Box" style="text;strokeColor=none;fillColor=none;align=left;verticalAlign=top;spacingLeft=4;spacingRight=4;overflow=hidden;rotatable=0;points=[[0,0.5],[1,0.5]];portConstraint=eastwest;" parent="l6k8qDA1Fq8a3DRyq_wM-19" vertex="1">
          <mxGeometry y="78" width="345" height="26" as="geometry" />
        </mxCell>
        <mxCell id="l6k8qDA1Fq8a3DRyq_wM-42" value="- players: ArrayList&lt;Player&gt;" style="text;strokeColor=none;fillColor=none;align=left;verticalAlign=top;spacingLeft=4;spacingRight=4;overflow=hidden;rotatable=0;points=[[0,0.5],[1,0.5]];portConstraint=eastwest;" parent="l6k8qDA1Fq8a3DRyq_wM-19" vertex="1">
          <mxGeometry y="104" width="345" height="26" as="geometry" />
        </mxCell>
        <mxCell id="zAEnMqXvGMXNLVfm_5Bu-9" value="- gods: ArrayList&lt;God&gt;" style="text;strokeColor=none;fillColor=none;align=left;verticalAlign=top;spacingLeft=4;spacingRight=4;overflow=hidden;rotatable=0;points=[[0,0.5],[1,0.5]];portConstraint=eastwest;" parent="l6k8qDA1Fq8a3DRyq_wM-19" vertex="1">
          <mxGeometry y="130" width="345" height="26" as="geometry" />
        </mxCell>
        <mxCell id="Bn6dSkrqQOUkgblqPXmy-17" value="- colors : ArrayList&lt;Color&gt;" style="text;strokeColor=none;fillColor=none;align=left;verticalAlign=top;spacingLeft=4;spacingRight=4;overflow=hidden;rotatable=0;points=[[0,0.5],[1,0.5]];portConstraint=eastwest;" parent="l6k8qDA1Fq8a3DRyq_wM-19" vertex="1">
          <mxGeometry y="156" width="345" height="26" as="geometry" />
        </mxCell>
        <mxCell id="l6k8qDA1Fq8a3DRyq_wM-21" value="" style="line;strokeWidth=1;fillColor=none;align=left;verticalAlign=middle;spacingTop=-1;spacingLeft=3;spacingRight=3;rotatable=0;labelPosition=right;points=[];portConstraint=eastwest;" parent="l6k8qDA1Fq8a3DRyq_wM-19" vertex="1">
          <mxGeometry y="182" width="345" height="8" as="geometry" />
        </mxCell>
        <mxCell id="l6k8qDA1Fq8a3DRyq_wM-22" value="+ Match (Player [], int)" style="text;strokeColor=none;fillColor=none;align=left;verticalAlign=top;spacingLeft=4;spacingRight=4;overflow=hidden;rotatable=0;points=[[0,0.5],[1,0.5]];portConstraint=eastwest;" parent="l6k8qDA1Fq8a3DRyq_wM-19" vertex="1">
          <mxGeometry y="190" width="345" height="26" as="geometry" />
        </mxCell>
        <mxCell id="l6k8qDA1Fq8a3DRyq_wM-67" value="+ getColumns() : int" style="text;strokeColor=none;fillColor=none;align=left;verticalAlign=top;spacingLeft=4;spacingRight=4;overflow=hidden;rotatable=0;points=[[0,0.5],[1,0.5]];portConstraint=eastwest;" parent="l6k8qDA1Fq8a3DRyq_wM-19" vertex="1">
          <mxGeometry y="216" width="345" height="26" as="geometry" />
        </mxCell>
        <mxCell id="l6k8qDA1Fq8a3DRyq_wM-43" value="+ getRows() : int" style="text;strokeColor=none;fillColor=none;align=left;verticalAlign=top;spacingLeft=4;spacingRight=4;overflow=hidden;rotatable=0;points=[[0,0.5],[1,0.5]];portConstraint=eastwest;" parent="l6k8qDA1Fq8a3DRyq_wM-19" vertex="1">
          <mxGeometry y="242" width="345" height="26" as="geometry" />
        </mxCell>
        <mxCell id="l6k8qDA1Fq8a3DRyq_wM-71" value="+ getBoard() : Box[][]" style="text;strokeColor=none;fillColor=none;align=left;verticalAlign=top;spacingLeft=4;spacingRight=4;overflow=hidden;rotatable=0;points=[[0,0.5],[1,0.5]];portConstraint=eastwest;" parent="l6k8qDA1Fq8a3DRyq_wM-19" vertex="1">
          <mxGeometry y="268" width="345" height="26" as="geometry" />
        </mxCell>
        <mxCell id="l6k8qDA1Fq8a3DRyq_wM-68" value="+ getPlayers() : ArrayList&lt;Player&gt;" style="text;strokeColor=none;fillColor=none;align=left;verticalAlign=top;spacingLeft=4;spacingRight=4;overflow=hidden;rotatable=0;points=[[0,0.5],[1,0.5]];portConstraint=eastwest;" parent="l6k8qDA1Fq8a3DRyq_wM-19" vertex="1">
          <mxGeometry y="294" width="345" height="26" as="geometry" />
        </mxCell>
        <mxCell id="Bn6dSkrqQOUkgblqPXmy-13" value="+ getGod(int) : God" style="text;strokeColor=none;fillColor=none;align=left;verticalAlign=top;spacingLeft=4;spacingRight=4;overflow=hidden;rotatable=0;points=[[0,0.5],[1,0.5]];portConstraint=eastwest;" parent="l6k8qDA1Fq8a3DRyq_wM-19" vertex="1">
          <mxGeometry y="320" width="345" height="26" as="geometry" />
        </mxCell>
        <mxCell id="Bn6dSkrqQOUkgblqPXmy-14" value="+ getGods() : ArrayList&lt;God&gt;" style="text;strokeColor=none;fillColor=none;align=left;verticalAlign=top;spacingLeft=4;spacingRight=4;overflow=hidden;rotatable=0;points=[[0,0.5],[1,0.5]];portConstraint=eastwest;" parent="l6k8qDA1Fq8a3DRyq_wM-19" vertex="1">
          <mxGeometry y="346" width="345" height="26" as="geometry" />
        </mxCell>
        <mxCell id="9p3l-YV2BuwI8JY0fFO7-12" value="+ getPlayer(String) : Player" style="text;strokeColor=none;fillColor=none;align=left;verticalAlign=top;spacingLeft=4;spacingRight=4;overflow=hidden;rotatable=0;points=[[0,0.5],[1,0.5]];portConstraint=eastwest;" parent="l6k8qDA1Fq8a3DRyq_wM-19" vertex="1">
          <mxGeometry y="372" width="345" height="26" as="geometry" />
        </mxCell>
        <mxCell id="EVFOlfFYSWDDvkUeGHSA-3" value="+ inizializeBoard() : void" style="text;strokeColor=none;fillColor=none;align=left;verticalAlign=top;spacingLeft=4;spacingRight=4;overflow=hidden;rotatable=0;points=[[0,0.5],[1,0.5]];portConstraint=eastwest;" parent="l6k8qDA1Fq8a3DRyq_wM-19" vertex="1">
          <mxGeometry y="398" width="345" height="26" as="geometry" />
        </mxCell>
        <mxCell id="9p3l-YV2BuwI8JY0fFO7-13" value="+ loadGods() : void" style="text;strokeColor=none;fillColor=none;align=left;verticalAlign=top;spacingLeft=4;spacingRight=4;overflow=hidden;rotatable=0;points=[[0,0.5],[1,0.5]];portConstraint=eastwest;" parent="l6k8qDA1Fq8a3DRyq_wM-19" vertex="1">
          <mxGeometry y="424" width="345" height="26" as="geometry" />
        </mxCell>
        <mxCell id="9p3l-YV2BuwI8JY0fFO7-14" value="+ playersInGame() : int" style="text;strokeColor=none;fillColor=none;align=left;verticalAlign=top;spacingLeft=4;spacingRight=4;overflow=hidden;rotatable=0;points=[[0,0.5],[1,0.5]];portConstraint=eastwest;" parent="l6k8qDA1Fq8a3DRyq_wM-19" vertex="1">
          <mxGeometry y="450" width="345" height="26" as="geometry" />
        </mxCell>
        <mxCell id="9p3l-YV2BuwI8JY0fFO7-15" value="+ printBoard() : String" style="text;strokeColor=none;fillColor=none;align=left;verticalAlign=top;spacingLeft=4;spacingRight=4;overflow=hidden;rotatable=0;points=[[0,0.5],[1,0.5]];portConstraint=eastwest;" parent="l6k8qDA1Fq8a3DRyq_wM-19" vertex="1">
          <mxGeometry y="476" width="345" height="26" as="geometry" />
        </mxCell>
        <mxCell id="9p3l-YV2BuwI8JY0fFO7-16" value="+ printGodList() : String" style="text;strokeColor=none;fillColor=none;align=left;verticalAlign=top;spacingLeft=4;spacingRight=4;overflow=hidden;rotatable=0;points=[[0,0.5],[1,0.5]];portConstraint=eastwest;" parent="l6k8qDA1Fq8a3DRyq_wM-19" vertex="1">
          <mxGeometry y="502" width="345" height="26" as="geometry" />
        </mxCell>
        <mxCell id="9p3l-YV2BuwI8JY0fFO7-17" value="+ printPlayers(): String" style="text;strokeColor=none;fillColor=none;align=left;verticalAlign=top;spacingLeft=4;spacingRight=4;overflow=hidden;rotatable=0;points=[[0,0.5],[1,0.5]];portConstraint=eastwest;" parent="l6k8qDA1Fq8a3DRyq_wM-19" vertex="1">
          <mxGeometry y="528" width="345" height="26" as="geometry" />
        </mxCell>
        <mxCell id="Bn6dSkrqQOUkgblqPXmy-12" value="+ removePlayer (Player) : void" style="text;strokeColor=none;fillColor=none;align=left;verticalAlign=top;spacingLeft=4;spacingRight=4;overflow=hidden;rotatable=0;points=[[0,0.5],[1,0.5]];portConstraint=eastwest;" parent="l6k8qDA1Fq8a3DRyq_wM-19" vertex="1">
          <mxGeometry y="554" width="345" height="26" as="geometry" />
        </mxCell>
        <mxCell id="l6k8qDA1Fq8a3DRyq_wM-64" value="+ removeWorkers(Player) : int" style="text;strokeColor=none;fillColor=none;align=left;verticalAlign=top;spacingLeft=4;spacingRight=4;overflow=hidden;rotatable=0;points=[[0,0.5],[1,0.5]];portConstraint=eastwest;" parent="l6k8qDA1Fq8a3DRyq_wM-19" vertex="1">
          <mxGeometry y="580" width="345" height="26" as="geometry" />
        </mxCell>
        <mxCell id="9p3l-YV2BuwI8JY0fFO7-18" value="+ resetBoard() : void" style="text;strokeColor=none;fillColor=none;align=left;verticalAlign=top;spacingLeft=4;spacingRight=4;overflow=hidden;rotatable=0;points=[[0,0.5],[1,0.5]];portConstraint=eastwest;" parent="l6k8qDA1Fq8a3DRyq_wM-19" vertex="1">
          <mxGeometry y="606" width="345" height="26" as="geometry" />
        </mxCell>
        <mxCell id="Bn6dSkrqQOUkgblqPXmy-16" value="+ sortPlayers() : void" style="text;strokeColor=none;fillColor=none;align=left;verticalAlign=top;spacingLeft=4;spacingRight=4;overflow=hidden;rotatable=0;points=[[0,0.5],[1,0.5]];portConstraint=eastwest;" parent="l6k8qDA1Fq8a3DRyq_wM-19" vertex="1">
          <mxGeometry y="632" width="345" height="26" as="geometry" />
        </mxCell>
        <mxCell id="EVFOlfFYSWDDvkUeGHSA-1" value="+ updateBuilding(Coordinate) : boolean" style="text;strokeColor=none;fillColor=none;align=left;verticalAlign=top;spacingLeft=4;spacingRight=4;overflow=hidden;rotatable=0;points=[[0,0.5],[1,0.5]];portConstraint=eastwest;" parent="l6k8qDA1Fq8a3DRyq_wM-19" vertex="1">
          <mxGeometry y="658" width="345" height="26" as="geometry" />
        </mxCell>
        <mxCell id="EVFOlfFYSWDDvkUeGHSA-2" value="+ updateMovement(Player, int, Coordinate) : boolean" style="text;strokeColor=none;fillColor=none;align=left;verticalAlign=top;spacingLeft=4;spacingRight=4;overflow=hidden;rotatable=0;points=[[0,0.5],[1,0.5]];portConstraint=eastwest;" parent="l6k8qDA1Fq8a3DRyq_wM-19" vertex="1">
          <mxGeometry y="684" width="345" height="26" as="geometry" />
        </mxCell>
        <mxCell id="zAEnMqXvGMXNLVfm_5Bu-10" value="+ updatePlayers(ArrayList&lt;ClientHandler&gt;) : void" style="text;strokeColor=none;fillColor=none;align=left;verticalAlign=top;spacingLeft=4;spacingRight=4;overflow=hidden;rotatable=0;points=[[0,0.5],[1,0.5]];portConstraint=eastwest;" parent="l6k8qDA1Fq8a3DRyq_wM-19" vertex="1">
          <mxGeometry y="710" width="345" height="26" as="geometry" />
        </mxCell>
        <mxCell id="Bn6dSkrqQOUkgblqPXmy-11" value="+ addPlayer() : void" style="text;strokeColor=none;fillColor=none;align=left;verticalAlign=top;spacingLeft=4;spacingRight=4;overflow=hidden;rotatable=0;points=[[0,0.5],[1,0.5]];portConstraint=eastwest;" parent="l6k8qDA1Fq8a3DRyq_wM-19" vertex="1">
          <mxGeometry y="736" width="345" height="26" as="geometry" />
        </mxCell>
        <mxCell id="9p3l-YV2BuwI8JY0fFO7-19" value="+ alreadyIn (String) : boolean" style="text;strokeColor=none;fillColor=none;align=left;verticalAlign=top;spacingLeft=4;spacingRight=4;overflow=hidden;rotatable=0;points=[[0,0.5],[1,0.5]];portConstraint=eastwest;" parent="l6k8qDA1Fq8a3DRyq_wM-19" vertex="1">
          <mxGeometry y="762" width="345" height="26" as="geometry" />
        </mxCell>
        <mxCell id="zAEnMqXvGMXNLVfm_5Bu-4" value="God" style="swimlane;fontStyle=1;align=center;verticalAlign=top;childLayout=stackLayout;horizontal=1;startSize=26;horizontalStack=0;resizeParent=1;resizeParentMax=0;resizeLast=0;collapsible=1;marginBottom=0;" parent="1" vertex="1">
          <mxGeometry x="163" y="-163" width="160" height="216" as="geometry" />
        </mxCell>
        <mxCell id="zAEnMqXvGMXNLVfm_5Bu-5" value="- ID : int" style="text;strokeColor=none;fillColor=none;align=left;verticalAlign=top;spacingLeft=4;spacingRight=4;overflow=hidden;rotatable=0;points=[[0,0.5],[1,0.5]];portConstraint=eastwest;" parent="zAEnMqXvGMXNLVfm_5Bu-4" vertex="1">
          <mxGeometry y="26" width="160" height="26" as="geometry" />
        </mxCell>
        <mxCell id="zAEnMqXvGMXNLVfm_5Bu-8" value="- Name : String" style="text;strokeColor=none;fillColor=none;align=left;verticalAlign=top;spacingLeft=4;spacingRight=4;overflow=hidden;rotatable=0;points=[[0,0.5],[1,0.5]];portConstraint=eastwest;" parent="zAEnMqXvGMXNLVfm_5Bu-4" vertex="1">
          <mxGeometry y="52" width="160" height="26" as="geometry" />
        </mxCell>
        <mxCell id="Bn6dSkrqQOUkgblqPXmy-76" value="- description : String" style="text;strokeColor=none;fillColor=none;align=left;verticalAlign=top;spacingLeft=4;spacingRight=4;overflow=hidden;rotatable=0;points=[[0,0.5],[1,0.5]];portConstraint=eastwest;" parent="zAEnMqXvGMXNLVfm_5Bu-4" vertex="1">
          <mxGeometry y="78" width="160" height="26" as="geometry" />
        </mxCell>
        <mxCell id="zAEnMqXvGMXNLVfm_5Bu-6" value="" style="line;strokeWidth=1;fillColor=none;align=left;verticalAlign=middle;spacingTop=-1;spacingLeft=3;spacingRight=3;rotatable=0;labelPosition=right;points=[];portConstraint=eastwest;" parent="zAEnMqXvGMXNLVfm_5Bu-4" vertex="1">
          <mxGeometry y="104" width="160" height="8" as="geometry" />
        </mxCell>
        <mxCell id="Bn6dSkrqQOUkgblqPXmy-77" value="+ getID() : int" style="text;strokeColor=none;fillColor=none;align=left;verticalAlign=top;spacingLeft=4;spacingRight=4;overflow=hidden;rotatable=0;points=[[0,0.5],[1,0.5]];portConstraint=eastwest;" parent="zAEnMqXvGMXNLVfm_5Bu-4" vertex="1">
          <mxGeometry y="112" width="160" height="26" as="geometry" />
        </mxCell>
        <mxCell id="Bn6dSkrqQOUkgblqPXmy-78" value="+ getName() : String" style="text;strokeColor=none;fillColor=none;align=left;verticalAlign=top;spacingLeft=4;spacingRight=4;overflow=hidden;rotatable=0;points=[[0,0.5],[1,0.5]];portConstraint=eastwest;" parent="zAEnMqXvGMXNLVfm_5Bu-4" vertex="1">
          <mxGeometry y="138" width="160" height="26" as="geometry" />
        </mxCell>
        <mxCell id="Bn6dSkrqQOUkgblqPXmy-79" value="+ getDescription() : String" style="text;strokeColor=none;fillColor=none;align=left;verticalAlign=top;spacingLeft=4;spacingRight=4;overflow=hidden;rotatable=0;points=[[0,0.5],[1,0.5]];portConstraint=eastwest;" parent="zAEnMqXvGMXNLVfm_5Bu-4" vertex="1">
          <mxGeometry y="164" width="160" height="26" as="geometry" />
        </mxCell>
        <mxCell id="9p3l-YV2BuwI8JY0fFO7-20" value="+ toString () : String" style="text;strokeColor=none;fillColor=none;align=left;verticalAlign=top;spacingLeft=4;spacingRight=4;overflow=hidden;rotatable=0;points=[[0,0.5],[1,0.5]];portConstraint=eastwest;" parent="zAEnMqXvGMXNLVfm_5Bu-4" vertex="1">
          <mxGeometry y="190" width="160" height="26" as="geometry" />
        </mxCell>
        <mxCell id="l6k8qDA1Fq8a3DRyq_wM-9" value="Player" style="swimlane;fontStyle=1;align=center;verticalAlign=top;childLayout=stackLayout;horizontal=1;startSize=26;horizontalStack=0;resizeParent=1;resizeParentMax=0;resizeLast=0;collapsible=1;marginBottom=0;fillColor=none;" parent="1" vertex="1">
          <mxGeometry x="524" y="-289" width="380" height="502" as="geometry" />
        </mxCell>
        <mxCell id="zAEnMqXvGMXNLVfm_5Bu-1" value="- ID : int " style="text;strokeColor=none;fillColor=none;align=left;verticalAlign=top;spacingLeft=4;spacingRight=4;overflow=hidden;rotatable=0;points=[[0,0.5],[1,0.5]];portConstraint=eastwest;" parent="l6k8qDA1Fq8a3DRyq_wM-9" vertex="1">
          <mxGeometry y="26" width="380" height="26" as="geometry" />
        </mxCell>
        <mxCell id="l6k8qDA1Fq8a3DRyq_wM-10" value="- nickname : String" style="text;strokeColor=none;fillColor=none;align=left;verticalAlign=top;spacingLeft=4;spacingRight=4;overflow=hidden;rotatable=0;points=[[0,0.5],[1,0.5]];portConstraint=eastwest;" parent="l6k8qDA1Fq8a3DRyq_wM-9" vertex="1">
          <mxGeometry y="52" width="380" height="26" as="geometry" />
        </mxCell>
        <mxCell id="l6k8qDA1Fq8a3DRyq_wM-12" value="- age : int " style="text;strokeColor=none;fillColor=none;align=left;verticalAlign=top;spacingLeft=4;spacingRight=4;overflow=hidden;rotatable=0;points=[[0,0.5],[1,0.5]];portConstraint=eastwest;" parent="l6k8qDA1Fq8a3DRyq_wM-9" vertex="1">
          <mxGeometry y="78" width="380" height="26" as="geometry" />
        </mxCell>
        <mxCell id="l6k8qDA1Fq8a3DRyq_wM-66" value="- card : God" style="text;strokeColor=none;fillColor=none;align=left;verticalAlign=top;spacingLeft=4;spacingRight=4;overflow=hidden;rotatable=0;points=[[0,0.5],[1,0.5]];portConstraint=eastwest;" parent="l6k8qDA1Fq8a3DRyq_wM-9" vertex="1">
          <mxGeometry y="104" width="380" height="26" as="geometry" />
        </mxCell>
        <mxCell id="l6k8qDA1Fq8a3DRyq_wM-86" value="- workers : ArrayList&lt;Worker&gt;" style="text;strokeColor=none;fillColor=none;align=left;verticalAlign=top;spacingLeft=4;spacingRight=4;overflow=hidden;rotatable=0;points=[[0,0.5],[1,0.5]];portConstraint=eastwest;" parent="l6k8qDA1Fq8a3DRyq_wM-9" vertex="1">
          <mxGeometry y="130" width="380" height="26" as="geometry" />
        </mxCell>
        <mxCell id="9p3l-YV2BuwI8JY0fFO7-1" value="- inGame : boolean" style="text;strokeColor=none;fillColor=none;align=left;verticalAlign=top;spacingLeft=4;spacingRight=4;overflow=hidden;rotatable=0;points=[[0,0.5],[1,0.5]];portConstraint=eastwest;" parent="l6k8qDA1Fq8a3DRyq_wM-9" vertex="1">
          <mxGeometry y="156" width="380" height="26" as="geometry" />
        </mxCell>
        <mxCell id="l6k8qDA1Fq8a3DRyq_wM-11" value="" style="line;strokeWidth=1;fillColor=none;align=left;verticalAlign=middle;spacingTop=-1;spacingLeft=3;spacingRight=3;rotatable=0;labelPosition=right;points=[];portConstraint=eastwest;" parent="l6k8qDA1Fq8a3DRyq_wM-9" vertex="1">
          <mxGeometry y="182" width="380" height="8" as="geometry" />
        </mxCell>
        <mxCell id="l6k8qDA1Fq8a3DRyq_wM-38" value="+ Player(int, String, int) " style="text;strokeColor=none;fillColor=none;align=left;verticalAlign=top;spacingLeft=4;spacingRight=4;overflow=hidden;rotatable=0;points=[[0,0.5],[1,0.5]];portConstraint=eastwest;" parent="l6k8qDA1Fq8a3DRyq_wM-9" vertex="1">
          <mxGeometry y="190" width="380" height="26" as="geometry" />
        </mxCell>
        <mxCell id="zAEnMqXvGMXNLVfm_5Bu-2" value="+ getID() : String" style="text;strokeColor=none;fillColor=none;align=left;verticalAlign=top;spacingLeft=4;spacingRight=4;overflow=hidden;rotatable=0;points=[[0,0.5],[1,0.5]];portConstraint=eastwest;" parent="l6k8qDA1Fq8a3DRyq_wM-9" vertex="1">
          <mxGeometry y="216" width="380" height="26" as="geometry" />
        </mxCell>
        <mxCell id="l6k8qDA1Fq8a3DRyq_wM-13" value="+ getAge() : int" style="text;strokeColor=none;fillColor=none;align=left;verticalAlign=top;spacingLeft=4;spacingRight=4;overflow=hidden;rotatable=0;points=[[0,0.5],[1,0.5]];portConstraint=eastwest;" parent="l6k8qDA1Fq8a3DRyq_wM-9" vertex="1">
          <mxGeometry y="242" width="380" height="26" as="geometry" />
        </mxCell>
        <mxCell id="l6k8qDA1Fq8a3DRyq_wM-14" value="+ getNickname() : String" style="text;strokeColor=none;fillColor=none;align=left;verticalAlign=top;spacingLeft=4;spacingRight=4;overflow=hidden;rotatable=0;points=[[0,0.5],[1,0.5]];portConstraint=eastwest;" parent="l6k8qDA1Fq8a3DRyq_wM-9" vertex="1">
          <mxGeometry y="268" width="380" height="26" as="geometry" />
        </mxCell>
        <mxCell id="zAEnMqXvGMXNLVfm_5Bu-3" value="+ getWorker(int) : Worker " style="text;strokeColor=none;fillColor=none;align=left;verticalAlign=top;spacingLeft=4;spacingRight=4;overflow=hidden;rotatable=0;points=[[0,0.5],[1,0.5]];portConstraint=eastwest;" parent="l6k8qDA1Fq8a3DRyq_wM-9" vertex="1">
          <mxGeometry y="294" width="380" height="26" as="geometry" />
        </mxCell>
        <mxCell id="Bn6dSkrqQOUkgblqPXmy-62" value="+ getCard() : God" style="text;strokeColor=none;fillColor=none;align=left;verticalAlign=top;spacingLeft=4;spacingRight=4;overflow=hidden;rotatable=0;points=[[0,0.5],[1,0.5]];portConstraint=eastwest;" parent="l6k8qDA1Fq8a3DRyq_wM-9" vertex="1">
          <mxGeometry y="320" width="380" height="26" as="geometry" />
        </mxCell>
        <mxCell id="Bn6dSkrqQOUkgblqPXmy-63" value="+ getWorkers() : ArrayList&lt;Worker&gt;" style="text;strokeColor=none;fillColor=none;align=left;verticalAlign=top;spacingLeft=4;spacingRight=4;overflow=hidden;rotatable=0;points=[[0,0.5],[1,0.5]];portConstraint=eastwest;" parent="l6k8qDA1Fq8a3DRyq_wM-9" vertex="1">
          <mxGeometry y="346" width="380" height="26" as="geometry" />
        </mxCell>
        <mxCell id="9p3l-YV2BuwI8JY0fFO7-2" value="+ getInGame() : boolean" style="text;strokeColor=none;fillColor=none;align=left;verticalAlign=top;spacingLeft=4;spacingRight=4;overflow=hidden;rotatable=0;points=[[0,0.5],[1,0.5]];portConstraint=eastwest;" parent="l6k8qDA1Fq8a3DRyq_wM-9" vertex="1">
          <mxGeometry y="372" width="380" height="26" as="geometry" />
        </mxCell>
        <mxCell id="l6k8qDA1Fq8a3DRyq_wM-15" value="+ setInGame(boolean) : void" style="text;strokeColor=none;fillColor=none;align=left;verticalAlign=top;spacingLeft=4;spacingRight=4;overflow=hidden;rotatable=0;points=[[0,0.5],[1,0.5]];portConstraint=eastwest;" parent="l6k8qDA1Fq8a3DRyq_wM-9" vertex="1">
          <mxGeometry y="398" width="380" height="26" as="geometry" />
        </mxCell>
        <mxCell id="Bn6dSkrqQOUkgblqPXmy-66" value="+ setCard (ArrayList&lt;God&gt;, int) : void" style="text;strokeColor=none;fillColor=none;align=left;verticalAlign=top;spacingLeft=4;spacingRight=4;overflow=hidden;rotatable=0;points=[[0,0.5],[1,0.5]];portConstraint=eastwest;" parent="l6k8qDA1Fq8a3DRyq_wM-9" vertex="1">
          <mxGeometry y="424" width="380" height="26" as="geometry" />
        </mxCell>
        <mxCell id="9p3l-YV2BuwI8JY0fFO7-3" value="+ putWorkers(Worker, Worker) : boolean " style="text;strokeColor=none;fillColor=none;align=left;verticalAlign=top;spacingLeft=4;spacingRight=4;overflow=hidden;rotatable=0;points=[[0,0.5],[1,0.5]];portConstraint=eastwest;" parent="l6k8qDA1Fq8a3DRyq_wM-9" vertex="1">
          <mxGeometry y="450" width="380" height="26" as="geometry" />
        </mxCell>
        <mxCell id="9p3l-YV2BuwI8JY0fFO7-4" value="+ toString() : String" style="text;strokeColor=none;fillColor=none;align=left;verticalAlign=top;spacingLeft=4;spacingRight=4;overflow=hidden;rotatable=0;points=[[0,0.5],[1,0.5]];portConstraint=eastwest;" parent="l6k8qDA1Fq8a3DRyq_wM-9" vertex="1">
          <mxGeometry y="476" width="380" height="26" as="geometry" />
        </mxCell>
        <mxCell id="d9iUq7tpXGbD1R2bJNIy-38" value="TurnDecorator" style="swimlane;fontStyle=1;align=center;verticalAlign=top;childLayout=stackLayout;horizontal=1;startSize=26;horizontalStack=0;resizeParent=1;resizeParentMax=0;resizeLast=0;collapsible=1;marginBottom=0;" vertex="1" parent="1">
          <mxGeometry x="1167" y="876" width="227" height="268" as="geometry" />
        </mxCell>
        <mxCell id="d9iUq7tpXGbD1R2bJNIy-39" value="" style="line;strokeWidth=1;fillColor=none;align=left;verticalAlign=middle;spacingTop=-1;spacingLeft=3;spacingRight=3;rotatable=0;labelPosition=right;points=[];portConstraint=eastwest;" vertex="1" parent="d9iUq7tpXGbD1R2bJNIy-38">
          <mxGeometry y="26" width="227" height="8" as="geometry" />
        </mxCell>
        <mxCell id="d9iUq7tpXGbD1R2bJNIy-40" value="+ TurnDecorator(Turn)" style="text;strokeColor=none;fillColor=none;align=left;verticalAlign=top;spacingLeft=4;spacingRight=4;overflow=hidden;rotatable=0;points=[[0,0.5],[1,0.5]];portConstraint=eastwest;" vertex="1" parent="d9iUq7tpXGbD1R2bJNIy-38">
          <mxGeometry y="34" width="227" height="26" as="geometry" />
        </mxCell>
        <mxCell id="d9iUq7tpXGbD1R2bJNIy-41" value="+ build(Match, ClientHandler, Server) : boolean" style="text;strokeColor=none;fillColor=none;align=left;verticalAlign=top;spacingLeft=4;spacingRight=4;overflow=hidden;rotatable=0;points=[[0,0.5],[1,0.5]];portConstraint=eastwest;" vertex="1" parent="d9iUq7tpXGbD1R2bJNIy-38">
          <mxGeometry y="60" width="227" height="26" as="geometry" />
        </mxCell>
        <mxCell id="d9iUq7tpXGbD1R2bJNIy-42" value="+ move(Match, ClientHandler, Server, boolean) : boolean" style="text;strokeColor=none;fillColor=none;align=left;verticalAlign=top;spacingLeft=4;spacingRight=4;overflow=hidden;rotatable=0;points=[[0,0.5],[1,0.5]];portConstraint=eastwest;" vertex="1" parent="d9iUq7tpXGbD1R2bJNIy-38">
          <mxGeometry y="86" width="227" height="26" as="geometry" />
        </mxCell>
        <mxCell id="d9iUq7tpXGbD1R2bJNIy-43" value="+ canBuildIn(Match, Worker, Coordinate) : boolean" style="text;strokeColor=none;fillColor=none;align=left;verticalAlign=top;spacingLeft=4;spacingRight=4;overflow=hidden;rotatable=0;points=[[0,0.5],[1,0.5]];portConstraint=eastwest;" vertex="1" parent="d9iUq7tpXGbD1R2bJNIy-38">
          <mxGeometry y="112" width="227" height="26" as="geometry" />
        </mxCell>
        <mxCell id="d9iUq7tpXGbD1R2bJNIy-44" value="+ canMoveTo(Match, Worker, Coordinate, boolean) : boolean" style="text;strokeColor=none;fillColor=none;align=left;verticalAlign=top;spacingLeft=4;spacingRight=4;overflow=hidden;rotatable=0;points=[[0,0.5],[1,0.5]];portConstraint=eastwest;" vertex="1" parent="d9iUq7tpXGbD1R2bJNIy-38">
          <mxGeometry y="138" width="227" height="26" as="geometry" />
        </mxCell>
        <mxCell id="d9iUq7tpXGbD1R2bJNIy-45" value="+ winCondition(Match, Player) : boolean" style="text;strokeColor=none;fillColor=none;align=left;verticalAlign=top;spacingLeft=4;spacingRight=4;overflow=hidden;rotatable=0;points=[[0,0.5],[1,0.5]];portConstraint=eastwest;" vertex="1" parent="d9iUq7tpXGbD1R2bJNIy-38">
          <mxGeometry y="164" width="227" height="26" as="geometry" />
        </mxCell>
        <mxCell id="d9iUq7tpXGbD1R2bJNIy-46" value="+ printCoordinates(ArrayList&lt;Coordinate&gt;) : String" style="text;strokeColor=none;fillColor=none;align=left;verticalAlign=top;spacingLeft=4;spacingRight=4;overflow=hidden;rotatable=0;points=[[0,0.5],[1,0.5]];portConstraint=eastwest;" vertex="1" parent="d9iUq7tpXGbD1R2bJNIy-38">
          <mxGeometry y="190" width="227" height="26" as="geometry" />
        </mxCell>
        <mxCell id="d9iUq7tpXGbD1R2bJNIy-47" value="+ whereCanMove(Match, ClientHandler, int, boolean) : ArrayList&lt;Coordinate&gt;" style="text;strokeColor=none;fillColor=none;align=left;verticalAlign=top;spacingLeft=4;spacingRight=4;overflow=hidden;rotatable=0;points=[[0,0.5],[1,0.5]];portConstraint=eastwest;" vertex="1" parent="d9iUq7tpXGbD1R2bJNIy-38">
          <mxGeometry y="216" width="227" height="26" as="geometry" />
        </mxCell>
        <mxCell id="d9iUq7tpXGbD1R2bJNIy-48" value="+ whereCanBuild(Match, ClientHandler, int) : ArrayList&lt;Coordinate&gt;" style="text;strokeColor=none;fillColor=none;align=left;verticalAlign=top;spacingLeft=4;spacingRight=4;overflow=hidden;rotatable=0;points=[[0,0.5],[1,0.5]];portConstraint=eastwest;" vertex="1" parent="d9iUq7tpXGbD1R2bJNIy-38">
          <mxGeometry y="242" width="227" height="26" as="geometry" />
        </mxCell>
        <mxCell id="Bn6dSkrqQOUkgblqPXmy-89" value="BaseTurn" style="swimlane;fontStyle=1;align=center;verticalAlign=top;childLayout=stackLayout;horizontal=1;startSize=26;horizontalStack=0;resizeParent=1;resizeParentMax=0;resizeLast=0;collapsible=1;marginBottom=0;" parent="1" vertex="1">
          <mxGeometry x="625" y="873" width="227" height="268" as="geometry" />
        </mxCell>
        <mxCell id="Bn6dSkrqQOUkgblqPXmy-91" value="" style="line;strokeWidth=1;fillColor=none;align=left;verticalAlign=middle;spacingTop=-1;spacingLeft=3;spacingRight=3;rotatable=0;labelPosition=right;points=[];portConstraint=eastwest;" parent="Bn6dSkrqQOUkgblqPXmy-89" vertex="1">
          <mxGeometry y="26" width="227" height="8" as="geometry" />
        </mxCell>
        <mxCell id="Bn6dSkrqQOUkgblqPXmy-92" value="+ BaseTurn(Turn)" style="text;strokeColor=none;fillColor=none;align=left;verticalAlign=top;spacingLeft=4;spacingRight=4;overflow=hidden;rotatable=0;points=[[0,0.5],[1,0.5]];portConstraint=eastwest;" parent="Bn6dSkrqQOUkgblqPXmy-89" vertex="1">
          <mxGeometry y="34" width="227" height="26" as="geometry" />
        </mxCell>
        <mxCell id="Bn6dSkrqQOUkgblqPXmy-94" value="+ build(Match, ClientHandler, Server) : boolean" style="text;strokeColor=none;fillColor=none;align=left;verticalAlign=top;spacingLeft=4;spacingRight=4;overflow=hidden;rotatable=0;points=[[0,0.5],[1,0.5]];portConstraint=eastwest;" parent="Bn6dSkrqQOUkgblqPXmy-89" vertex="1">
          <mxGeometry y="60" width="227" height="26" as="geometry" />
        </mxCell>
        <mxCell id="Bn6dSkrqQOUkgblqPXmy-95" value="+ move(Match, ClientHandler, Server, boolean) : boolean" style="text;strokeColor=none;fillColor=none;align=left;verticalAlign=top;spacingLeft=4;spacingRight=4;overflow=hidden;rotatable=0;points=[[0,0.5],[1,0.5]];portConstraint=eastwest;" parent="Bn6dSkrqQOUkgblqPXmy-89" vertex="1">
          <mxGeometry y="86" width="227" height="26" as="geometry" />
        </mxCell>
        <mxCell id="d9iUq7tpXGbD1R2bJNIy-2" value="+ canBuildIn(Match, Worker, Coordinate) : boolean" style="text;strokeColor=none;fillColor=none;align=left;verticalAlign=top;spacingLeft=4;spacingRight=4;overflow=hidden;rotatable=0;points=[[0,0.5],[1,0.5]];portConstraint=eastwest;" vertex="1" parent="Bn6dSkrqQOUkgblqPXmy-89">
          <mxGeometry y="112" width="227" height="26" as="geometry" />
        </mxCell>
        <mxCell id="d9iUq7tpXGbD1R2bJNIy-3" value="+ canMoveTo(Match, Worker, Coordinate, boolean) : boolean" style="text;strokeColor=none;fillColor=none;align=left;verticalAlign=top;spacingLeft=4;spacingRight=4;overflow=hidden;rotatable=0;points=[[0,0.5],[1,0.5]];portConstraint=eastwest;" vertex="1" parent="Bn6dSkrqQOUkgblqPXmy-89">
          <mxGeometry y="138" width="227" height="26" as="geometry" />
        </mxCell>
        <mxCell id="Bn6dSkrqQOUkgblqPXmy-93" value="+ winCondition(Match, Player) : boolean" style="text;strokeColor=none;fillColor=none;align=left;verticalAlign=top;spacingLeft=4;spacingRight=4;overflow=hidden;rotatable=0;points=[[0,0.5],[1,0.5]];portConstraint=eastwest;" parent="Bn6dSkrqQOUkgblqPXmy-89" vertex="1">
          <mxGeometry y="164" width="227" height="26" as="geometry" />
        </mxCell>
        <mxCell id="Bn6dSkrqQOUkgblqPXmy-97" value="+ printCoordinates(ArrayList&lt;Coordinate&gt;) : String" style="text;strokeColor=none;fillColor=none;align=left;verticalAlign=top;spacingLeft=4;spacingRight=4;overflow=hidden;rotatable=0;points=[[0,0.5],[1,0.5]];portConstraint=eastwest;" parent="Bn6dSkrqQOUkgblqPXmy-89" vertex="1">
          <mxGeometry y="190" width="227" height="26" as="geometry" />
        </mxCell>
        <mxCell id="d9iUq7tpXGbD1R2bJNIy-4" value="+ whereCanMove(Match, ClientHandler, int, boolean) : ArrayList&lt;Coordinate&gt;" style="text;strokeColor=none;fillColor=none;align=left;verticalAlign=top;spacingLeft=4;spacingRight=4;overflow=hidden;rotatable=0;points=[[0,0.5],[1,0.5]];portConstraint=eastwest;" vertex="1" parent="Bn6dSkrqQOUkgblqPXmy-89">
          <mxGeometry y="216" width="227" height="26" as="geometry" />
        </mxCell>
        <mxCell id="d9iUq7tpXGbD1R2bJNIy-5" value="+ whereCanBuild(Match, ClientHandler, int) : ArrayList&lt;Coordinate&gt;" style="text;strokeColor=none;fillColor=none;align=left;verticalAlign=top;spacingLeft=4;spacingRight=4;overflow=hidden;rotatable=0;points=[[0,0.5],[1,0.5]];portConstraint=eastwest;" vertex="1" parent="Bn6dSkrqQOUkgblqPXmy-89">
          <mxGeometry y="242" width="227" height="26" as="geometry" />
        </mxCell>
        <mxCell id="Bn6dSkrqQOUkgblqPXmy-181" value="PrometheusTurn" style="swimlane;fontStyle=1;align=center;verticalAlign=top;childLayout=stackLayout;horizontal=1;startSize=26;horizontalStack=0;resizeParent=1;resizeParentMax=0;resizeLast=0;collapsible=1;marginBottom=0;" parent="1" vertex="1">
          <mxGeometry x="1693" y="1297" width="227" height="86" as="geometry" />
        </mxCell>
        <mxCell id="Bn6dSkrqQOUkgblqPXmy-183" value="" style="line;strokeWidth=1;fillColor=none;align=left;verticalAlign=middle;spacingTop=-1;spacingLeft=3;spacingRight=3;rotatable=0;labelPosition=right;points=[];portConstraint=eastwest;" parent="Bn6dSkrqQOUkgblqPXmy-181" vertex="1">
          <mxGeometry y="26" width="227" height="8" as="geometry" />
        </mxCell>
        <mxCell id="Bn6dSkrqQOUkgblqPXmy-184" value="+ PrometheusTurn(Turn)" style="text;strokeColor=none;fillColor=none;align=left;verticalAlign=top;spacingLeft=4;spacingRight=4;overflow=hidden;rotatable=0;points=[[0,0.5],[1,0.5]];portConstraint=eastwest;" parent="Bn6dSkrqQOUkgblqPXmy-181" vertex="1">
          <mxGeometry y="34" width="227" height="26" as="geometry" />
        </mxCell>
        <mxCell id="Bn6dSkrqQOUkgblqPXmy-187" value="+ move(Match, ClientHandler, Server, boolean) : boolean" style="text;strokeColor=none;fillColor=none;align=left;verticalAlign=top;spacingLeft=4;spacingRight=4;overflow=hidden;rotatable=0;points=[[0,0.5],[1,0.5]];portConstraint=eastwest;" parent="Bn6dSkrqQOUkgblqPXmy-181" vertex="1">
          <mxGeometry y="60" width="227" height="26" as="geometry" />
        </mxCell>
        <mxCell id="Bn6dSkrqQOUkgblqPXmy-172" value="PanTurn" style="swimlane;fontStyle=1;align=center;verticalAlign=top;childLayout=stackLayout;horizontal=1;startSize=26;horizontalStack=0;resizeParent=1;resizeParentMax=0;resizeLast=0;collapsible=1;marginBottom=0;" parent="1" vertex="1">
          <mxGeometry x="1686" y="1411" width="227" height="86" as="geometry" />
        </mxCell>
        <mxCell id="Bn6dSkrqQOUkgblqPXmy-174" value="" style="line;strokeWidth=1;fillColor=none;align=left;verticalAlign=middle;spacingTop=-1;spacingLeft=3;spacingRight=3;rotatable=0;labelPosition=right;points=[];portConstraint=eastwest;" parent="Bn6dSkrqQOUkgblqPXmy-172" vertex="1">
          <mxGeometry y="26" width="227" height="8" as="geometry" />
        </mxCell>
        <mxCell id="Bn6dSkrqQOUkgblqPXmy-175" value="+ PanTurn(Turn)" style="text;strokeColor=none;fillColor=none;align=left;verticalAlign=top;spacingLeft=4;spacingRight=4;overflow=hidden;rotatable=0;points=[[0,0.5],[1,0.5]];portConstraint=eastwest;" parent="Bn6dSkrqQOUkgblqPXmy-172" vertex="1">
          <mxGeometry y="34" width="227" height="26" as="geometry" />
        </mxCell>
        <mxCell id="Bn6dSkrqQOUkgblqPXmy-176" value="+ winCondition(Match, Player) : boolean" style="text;strokeColor=none;fillColor=none;align=left;verticalAlign=top;spacingLeft=4;spacingRight=4;overflow=hidden;rotatable=0;points=[[0,0.5],[1,0.5]];portConstraint=eastwest;" parent="Bn6dSkrqQOUkgblqPXmy-172" vertex="1">
          <mxGeometry y="60" width="227" height="26" as="geometry" />
        </mxCell>
        <mxCell id="Bn6dSkrqQOUkgblqPXmy-163" value="MinotaurTurn" style="swimlane;fontStyle=1;align=center;verticalAlign=top;childLayout=stackLayout;horizontal=1;startSize=26;horizontalStack=0;resizeParent=1;resizeParentMax=0;resizeLast=0;collapsible=1;marginBottom=0;" parent="1" vertex="1">
          <mxGeometry x="1683" y="1520" width="227" height="112" as="geometry" />
        </mxCell>
        <mxCell id="Bn6dSkrqQOUkgblqPXmy-165" value="" style="line;strokeWidth=1;fillColor=none;align=left;verticalAlign=middle;spacingTop=-1;spacingLeft=3;spacingRight=3;rotatable=0;labelPosition=right;points=[];portConstraint=eastwest;" parent="Bn6dSkrqQOUkgblqPXmy-163" vertex="1">
          <mxGeometry y="26" width="227" height="8" as="geometry" />
        </mxCell>
        <mxCell id="Bn6dSkrqQOUkgblqPXmy-166" value="+ MinotaurTurn(Turn)" style="text;strokeColor=none;fillColor=none;align=left;verticalAlign=top;spacingLeft=4;spacingRight=4;overflow=hidden;rotatable=0;points=[[0,0.5],[1,0.5]];portConstraint=eastwest;" parent="Bn6dSkrqQOUkgblqPXmy-163" vertex="1">
          <mxGeometry y="34" width="227" height="26" as="geometry" />
        </mxCell>
        <mxCell id="Bn6dSkrqQOUkgblqPXmy-169" value="+ move(Match, ClientHandler, Server, boolean) : boolean" style="text;strokeColor=none;fillColor=none;align=left;verticalAlign=top;spacingLeft=4;spacingRight=4;overflow=hidden;rotatable=0;points=[[0,0.5],[1,0.5]];portConstraint=eastwest;" parent="Bn6dSkrqQOUkgblqPXmy-163" vertex="1">
          <mxGeometry y="60" width="227" height="26" as="geometry" />
        </mxCell>
        <mxCell id="Bn6dSkrqQOUkgblqPXmy-171" value="+ canMoveTo(Match, Worker, Coordinate, boolean) : boolean" style="text;strokeColor=none;fillColor=none;align=left;verticalAlign=top;spacingLeft=4;spacingRight=4;overflow=hidden;rotatable=0;points=[[0,0.5],[1,0.5]];portConstraint=eastwest;" parent="Bn6dSkrqQOUkgblqPXmy-163" vertex="1">
          <mxGeometry y="86" width="227" height="26" as="geometry" />
        </mxCell>
        <mxCell id="Bn6dSkrqQOUkgblqPXmy-98" value="GodTurn" style="swimlane;fontStyle=1;align=center;verticalAlign=top;childLayout=stackLayout;horizontal=1;startSize=26;horizontalStack=0;resizeParent=1;resizeParentMax=0;resizeLast=0;collapsible=1;marginBottom=0;" parent="1" vertex="1">
          <mxGeometry x="963" y="1259" width="227" height="60" as="geometry" />
        </mxCell>
        <mxCell id="Bn6dSkrqQOUkgblqPXmy-100" value="" style="line;strokeWidth=1;fillColor=none;align=left;verticalAlign=middle;spacingTop=-1;spacingLeft=3;spacingRight=3;rotatable=0;labelPosition=right;points=[];portConstraint=eastwest;" parent="Bn6dSkrqQOUkgblqPXmy-98" vertex="1">
          <mxGeometry y="26" width="227" height="8" as="geometry" />
        </mxCell>
        <mxCell id="Bn6dSkrqQOUkgblqPXmy-101" value="+ GodTurn(Turn)" style="text;strokeColor=none;fillColor=none;align=left;verticalAlign=top;spacingLeft=4;spacingRight=4;overflow=hidden;rotatable=0;points=[[0,0.5],[1,0.5]];portConstraint=eastwest;" parent="Bn6dSkrqQOUkgblqPXmy-98" vertex="1">
          <mxGeometry y="34" width="227" height="26" as="geometry" />
        </mxCell>
        <mxCell id="d9iUq7tpXGbD1R2bJNIy-33" value="TritonTurn" style="swimlane;fontStyle=1;align=center;verticalAlign=top;childLayout=stackLayout;horizontal=1;startSize=26;horizontalStack=0;resizeParent=1;resizeParentMax=0;resizeLast=0;collapsible=1;marginBottom=0;" vertex="1" parent="1">
          <mxGeometry x="1199" y="1681" width="227" height="112" as="geometry" />
        </mxCell>
        <mxCell id="d9iUq7tpXGbD1R2bJNIy-34" value="" style="line;strokeWidth=1;fillColor=none;align=left;verticalAlign=middle;spacingTop=-1;spacingLeft=3;spacingRight=3;rotatable=0;labelPosition=right;points=[];portConstraint=eastwest;" vertex="1" parent="d9iUq7tpXGbD1R2bJNIy-33">
          <mxGeometry y="26" width="227" height="8" as="geometry" />
        </mxCell>
        <mxCell id="d9iUq7tpXGbD1R2bJNIy-35" value="+ TritonTurn(Turn)" style="text;strokeColor=none;fillColor=none;align=left;verticalAlign=top;spacingLeft=4;spacingRight=4;overflow=hidden;rotatable=0;points=[[0,0.5],[1,0.5]];portConstraint=eastwest;" vertex="1" parent="d9iUq7tpXGbD1R2bJNIy-33">
          <mxGeometry y="34" width="227" height="26" as="geometry" />
        </mxCell>
        <mxCell id="d9iUq7tpXGbD1R2bJNIy-36" value="+ move(Match, ClientHandler, Server, boolean) : boolean" style="text;strokeColor=none;fillColor=none;align=left;verticalAlign=top;spacingLeft=4;spacingRight=4;overflow=hidden;rotatable=0;points=[[0,0.5],[1,0.5]];portConstraint=eastwest;" vertex="1" parent="d9iUq7tpXGbD1R2bJNIy-33">
          <mxGeometry y="60" width="227" height="26" as="geometry" />
        </mxCell>
        <mxCell id="d9iUq7tpXGbD1R2bJNIy-37" value="+ canMoveTo(Match, Worker, Coordinate, boolean) : boolean" style="text;strokeColor=none;fillColor=none;align=left;verticalAlign=top;spacingLeft=4;spacingRight=4;overflow=hidden;rotatable=0;points=[[0,0.5],[1,0.5]];portConstraint=eastwest;" vertex="1" parent="d9iUq7tpXGbD1R2bJNIy-33">
          <mxGeometry y="86" width="227" height="26" as="geometry" />
        </mxCell>
        <mxCell id="Bn6dSkrqQOUkgblqPXmy-145" value="DemeterTurn" style="swimlane;fontStyle=1;align=center;verticalAlign=top;childLayout=stackLayout;horizontal=1;startSize=26;horizontalStack=0;resizeParent=1;resizeParentMax=0;resizeLast=0;collapsible=1;marginBottom=0;" parent="1" vertex="1">
          <mxGeometry x="937" y="1684" width="227" height="112" as="geometry" />
        </mxCell>
        <mxCell id="Bn6dSkrqQOUkgblqPXmy-147" value="" style="line;strokeWidth=1;fillColor=none;align=left;verticalAlign=middle;spacingTop=-1;spacingLeft=3;spacingRight=3;rotatable=0;labelPosition=right;points=[];portConstraint=eastwest;" parent="Bn6dSkrqQOUkgblqPXmy-145" vertex="1">
          <mxGeometry y="26" width="227" height="8" as="geometry" />
        </mxCell>
        <mxCell id="Bn6dSkrqQOUkgblqPXmy-148" value="+ DemeterTurn(Turn)" style="text;strokeColor=none;fillColor=none;align=left;verticalAlign=top;spacingLeft=4;spacingRight=4;overflow=hidden;rotatable=0;points=[[0,0.5],[1,0.5]];portConstraint=eastwest;" parent="Bn6dSkrqQOUkgblqPXmy-145" vertex="1">
          <mxGeometry y="34" width="227" height="26" as="geometry" />
        </mxCell>
        <mxCell id="Bn6dSkrqQOUkgblqPXmy-150" value="+ build(Match, Worker, Coordinate) : boolean" style="text;strokeColor=none;fillColor=none;align=left;verticalAlign=top;spacingLeft=4;spacingRight=4;overflow=hidden;rotatable=0;points=[[0,0.5],[1,0.5]];portConstraint=eastwest;" parent="Bn6dSkrqQOUkgblqPXmy-145" vertex="1">
          <mxGeometry y="60" width="227" height="26" as="geometry" />
        </mxCell>
        <mxCell id="Bn6dSkrqQOUkgblqPXmy-153" value="+ canBuildIn(Match, Worker, Coordinate) : boolean" style="text;strokeColor=none;fillColor=none;align=left;verticalAlign=top;spacingLeft=4;spacingRight=4;overflow=hidden;rotatable=0;points=[[0,0.5],[1,0.5]];portConstraint=eastwest;" parent="Bn6dSkrqQOUkgblqPXmy-145" vertex="1">
          <mxGeometry y="86" width="227" height="26" as="geometry" />
        </mxCell>
        <mxCell id="qDY2ekXkH5HiKyhQ4_CK-49" value="GameController" style="swimlane;fontStyle=1;align=center;verticalAlign=top;childLayout=stackLayout;horizontal=1;startSize=26;horizontalStack=0;resizeParent=1;resizeParentMax=0;resizeLast=0;collapsible=1;marginBottom=0;" parent="1" vertex="1">
          <mxGeometry x="-479" y="750" width="319" height="710" as="geometry" />
        </mxCell>
        <mxCell id="qDY2ekXkH5HiKyhQ4_CK-50" value="- match : Match" style="text;strokeColor=none;fillColor=none;align=left;verticalAlign=top;spacingLeft=4;spacingRight=4;overflow=hidden;rotatable=0;points=[[0,0.5],[1,0.5]];portConstraint=eastwest;" parent="qDY2ekXkH5HiKyhQ4_CK-49" vertex="1">
          <mxGeometry y="26" width="319" height="26" as="geometry" />
        </mxCell>
        <mxCell id="Bn6dSkrqQOUkgblqPXmy-1" value="- athenaOn : boolean" style="text;strokeColor=none;fillColor=none;align=left;verticalAlign=top;spacingLeft=4;spacingRight=4;overflow=hidden;rotatable=0;points=[[0,0.5],[1,0.5]];portConstraint=eastwest;" parent="qDY2ekXkH5HiKyhQ4_CK-49" vertex="1">
          <mxGeometry y="52" width="319" height="26" as="geometry" />
        </mxCell>
        <mxCell id="qDY2ekXkH5HiKyhQ4_CK-56" value="- endGame : boolean" style="text;strokeColor=none;fillColor=none;align=left;verticalAlign=top;spacingLeft=4;spacingRight=4;overflow=hidden;rotatable=0;points=[[0,0.5],[1,0.5]];portConstraint=eastwest;" parent="qDY2ekXkH5HiKyhQ4_CK-49" vertex="1">
          <mxGeometry y="78" width="319" height="26" as="geometry" />
        </mxCell>
        <mxCell id="d9iUq7tpXGbD1R2bJNIy-11" value="- godIndex : int" style="text;strokeColor=none;fillColor=none;align=left;verticalAlign=top;spacingLeft=4;spacingRight=4;overflow=hidden;rotatable=0;points=[[0,0.5],[1,0.5]];portConstraint=eastwest;" vertex="1" parent="qDY2ekXkH5HiKyhQ4_CK-49">
          <mxGeometry y="104" width="319" height="26" as="geometry" />
        </mxCell>
        <mxCell id="d9iUq7tpXGbD1R2bJNIy-13" value="- godOn : boolean" style="text;strokeColor=none;fillColor=none;align=left;verticalAlign=top;spacingLeft=4;spacingRight=4;overflow=hidden;rotatable=0;points=[[0,0.5],[1,0.5]];portConstraint=eastwest;" vertex="1" parent="qDY2ekXkH5HiKyhQ4_CK-49">
          <mxGeometry y="130" width="319" height="26" as="geometry" />
        </mxCell>
        <mxCell id="d9iUq7tpXGbD1R2bJNIy-14" value="- myturn : int" style="text;strokeColor=none;fillColor=none;align=left;verticalAlign=top;spacingLeft=4;spacingRight=4;overflow=hidden;rotatable=0;points=[[0,0.5],[1,0.5]];portConstraint=eastwest;" vertex="1" parent="qDY2ekXkH5HiKyhQ4_CK-49">
          <mxGeometry y="156" width="319" height="26" as="geometry" />
        </mxCell>
        <mxCell id="d9iUq7tpXGbD1R2bJNIy-15" value="- numPlayers : int" style="text;strokeColor=none;fillColor=none;align=left;verticalAlign=top;spacingLeft=4;spacingRight=4;overflow=hidden;rotatable=0;points=[[0,0.5],[1,0.5]];portConstraint=eastwest;" vertex="1" parent="qDY2ekXkH5HiKyhQ4_CK-49">
          <mxGeometry y="182" width="319" height="26" as="geometry" />
        </mxCell>
        <mxCell id="d9iUq7tpXGbD1R2bJNIy-16" value="- server : Server" style="text;strokeColor=none;fillColor=none;align=left;verticalAlign=top;spacingLeft=4;spacingRight=4;overflow=hidden;rotatable=0;points=[[0,0.5],[1,0.5]];portConstraint=eastwest;" vertex="1" parent="qDY2ekXkH5HiKyhQ4_CK-49">
          <mxGeometry y="208" width="319" height="26" as="geometry" />
        </mxCell>
        <mxCell id="qDY2ekXkH5HiKyhQ4_CK-51" value="" style="line;strokeWidth=1;fillColor=none;align=left;verticalAlign=middle;spacingTop=-1;spacingLeft=3;spacingRight=3;rotatable=0;labelPosition=right;points=[];portConstraint=eastwest;" parent="qDY2ekXkH5HiKyhQ4_CK-49" vertex="1">
          <mxGeometry y="234" width="319" height="8" as="geometry" />
        </mxCell>
        <mxCell id="qDY2ekXkH5HiKyhQ4_CK-54" value="+ GameController()" style="text;strokeColor=none;fillColor=none;align=left;verticalAlign=top;spacingLeft=4;spacingRight=4;overflow=hidden;rotatable=0;points=[[0,0.5],[1,0.5]];portConstraint=eastwest;" parent="qDY2ekXkH5HiKyhQ4_CK-49" vertex="1">
          <mxGeometry y="242" width="319" height="26" as="geometry" />
        </mxCell>
        <mxCell id="Bn6dSkrqQOUkgblqPXmy-10" value="+ athenaCondition(ClientHandler) : void" style="text;strokeColor=none;fillColor=none;align=left;verticalAlign=top;spacingLeft=4;spacingRight=4;overflow=hidden;rotatable=0;points=[[0,0.5],[1,0.5]];portConstraint=eastwest;" parent="qDY2ekXkH5HiKyhQ4_CK-49" vertex="1">
          <mxGeometry y="268" width="319" height="26" as="geometry" />
        </mxCell>
        <mxCell id="Bn6dSkrqQOUkgblqPXmy-4" value="+ controlMovement(Player, int, Coordinate) : boolean" style="text;strokeColor=none;fillColor=none;align=left;verticalAlign=top;spacingLeft=4;spacingRight=4;overflow=hidden;rotatable=0;points=[[0,0.5],[1,0.5]];portConstraint=eastwest;" parent="qDY2ekXkH5HiKyhQ4_CK-49" vertex="1">
          <mxGeometry y="294" width="319" height="26" as="geometry" />
        </mxCell>
        <mxCell id="qDY2ekXkH5HiKyhQ4_CK-55" value="+ gameExe() : void" style="text;strokeColor=none;fillColor=none;align=left;verticalAlign=top;spacingLeft=4;spacingRight=4;overflow=hidden;rotatable=0;points=[[0,0.5],[1,0.5]];portConstraint=eastwest;" parent="qDY2ekXkH5HiKyhQ4_CK-49" vertex="1">
          <mxGeometry y="320" width="319" height="26" as="geometry" />
        </mxCell>
        <mxCell id="Bn6dSkrqQOUkgblqPXmy-9" value="+ getAthenaOn() : boolean" style="text;strokeColor=none;fillColor=none;align=left;verticalAlign=top;spacingLeft=4;spacingRight=4;overflow=hidden;rotatable=0;points=[[0,0.5],[1,0.5]];portConstraint=eastwest;" parent="qDY2ekXkH5HiKyhQ4_CK-49" vertex="1">
          <mxGeometry y="346" width="319" height="26" as="geometry" />
        </mxCell>
        <mxCell id="d9iUq7tpXGbD1R2bJNIy-20" value="+ setAthenaOn(boolean) : void" style="text;strokeColor=none;fillColor=none;align=left;verticalAlign=top;spacingLeft=4;spacingRight=4;overflow=hidden;rotatable=0;points=[[0,0.5],[1,0.5]];portConstraint=eastwest;" vertex="1" parent="qDY2ekXkH5HiKyhQ4_CK-49">
          <mxGeometry y="372" width="319" height="26" as="geometry" />
        </mxCell>
        <mxCell id="d9iUq7tpXGbD1R2bJNIy-21" value="+ setNumPlayers(int) : void" style="text;strokeColor=none;fillColor=none;align=left;verticalAlign=top;spacingLeft=4;spacingRight=4;overflow=hidden;rotatable=0;points=[[0,0.5],[1,0.5]];portConstraint=eastwest;" vertex="1" parent="qDY2ekXkH5HiKyhQ4_CK-49">
          <mxGeometry y="398" width="319" height="26" as="geometry" />
        </mxCell>
        <mxCell id="d9iUq7tpXGbD1R2bJNIy-17" value="+ getCoordinate() : Coordinate" style="text;strokeColor=none;fillColor=none;align=left;verticalAlign=top;spacingLeft=4;spacingRight=4;overflow=hidden;rotatable=0;points=[[0,0.5],[1,0.5]];portConstraint=eastwest;" vertex="1" parent="qDY2ekXkH5HiKyhQ4_CK-49">
          <mxGeometry y="424" width="319" height="26" as="geometry" />
        </mxCell>
        <mxCell id="d9iUq7tpXGbD1R2bJNIy-18" value="+ getMatch() : Match" style="text;strokeColor=none;fillColor=none;align=left;verticalAlign=top;spacingLeft=4;spacingRight=4;overflow=hidden;rotatable=0;points=[[0,0.5],[1,0.5]];portConstraint=eastwest;" vertex="1" parent="qDY2ekXkH5HiKyhQ4_CK-49">
          <mxGeometry y="450" width="319" height="26" as="geometry" />
        </mxCell>
        <mxCell id="d9iUq7tpXGbD1R2bJNIy-19" value="+ getTurn() : int" style="text;strokeColor=none;fillColor=none;align=left;verticalAlign=top;spacingLeft=4;spacingRight=4;overflow=hidden;rotatable=0;points=[[0,0.5],[1,0.5]];portConstraint=eastwest;" vertex="1" parent="qDY2ekXkH5HiKyhQ4_CK-49">
          <mxGeometry y="476" width="319" height="26" as="geometry" />
        </mxCell>
        <mxCell id="Bn6dSkrqQOUkgblqPXmy-3" value="+ godsAssignment() : boolean" style="text;strokeColor=none;fillColor=none;align=left;verticalAlign=top;spacingLeft=4;spacingRight=4;overflow=hidden;rotatable=0;points=[[0,0.5],[1,0.5]];portConstraint=eastwest;" parent="qDY2ekXkH5HiKyhQ4_CK-49" vertex="1">
          <mxGeometry y="502" width="319" height="26" as="geometry" />
        </mxCell>
        <mxCell id="qDY2ekXkH5HiKyhQ4_CK-52" value="+ godSelection() : void" style="text;strokeColor=none;fillColor=none;align=left;verticalAlign=top;spacingLeft=4;spacingRight=4;overflow=hidden;rotatable=0;points=[[0,0.5],[1,0.5]];portConstraint=eastwest;" parent="qDY2ekXkH5HiKyhQ4_CK-49" vertex="1">
          <mxGeometry y="528" width="319" height="26" as="geometry" />
        </mxCell>
        <mxCell id="Bn6dSkrqQOUkgblqPXmy-75" value="+ losePlayer(ClientHandler) : void" style="text;strokeColor=none;fillColor=none;align=left;verticalAlign=top;spacingLeft=4;spacingRight=4;overflow=hidden;rotatable=0;points=[[0,0.5],[1,0.5]];portConstraint=eastwest;" parent="qDY2ekXkH5HiKyhQ4_CK-49" vertex="1">
          <mxGeometry y="554" width="319" height="26" as="geometry" />
        </mxCell>
        <mxCell id="Bn6dSkrqQOUkgblqPXmy-5" value="+ newTurn (ClientHandler) : boolean" style="text;strokeColor=none;fillColor=none;align=left;verticalAlign=top;spacingLeft=4;spacingRight=4;overflow=hidden;rotatable=0;points=[[0,0.5],[1,0.5]];portConstraint=eastwest;" parent="qDY2ekXkH5HiKyhQ4_CK-49" vertex="1">
          <mxGeometry y="580" width="319" height="26" as="geometry" />
        </mxCell>
        <mxCell id="qDY2ekXkH5HiKyhQ4_CK-53" value="+ next() : int" style="text;strokeColor=none;fillColor=none;align=left;verticalAlign=top;spacingLeft=4;spacingRight=4;overflow=hidden;rotatable=0;points=[[0,0.5],[1,0.5]];portConstraint=eastwest;" parent="qDY2ekXkH5HiKyhQ4_CK-49" vertex="1">
          <mxGeometry y="606" width="319" height="26" as="geometry" />
        </mxCell>
        <mxCell id="Bn6dSkrqQOUkgblqPXmy-6" value="+ turnExe(Player, Turn) : boolean" style="text;strokeColor=none;fillColor=none;align=left;verticalAlign=top;spacingLeft=4;spacingRight=4;overflow=hidden;rotatable=0;points=[[0,0.5],[1,0.5]];portConstraint=eastwest;" parent="qDY2ekXkH5HiKyhQ4_CK-49" vertex="1">
          <mxGeometry y="632" width="319" height="26" as="geometry" />
        </mxCell>
        <mxCell id="Bn6dSkrqQOUkgblqPXmy-7" value="+ boolean putWorkers() : boolean" style="text;strokeColor=none;fillColor=none;align=left;verticalAlign=top;spacingLeft=4;spacingRight=4;overflow=hidden;rotatable=0;points=[[0,0.5],[1,0.5]];portConstraint=eastwest;" parent="qDY2ekXkH5HiKyhQ4_CK-49" vertex="1">
          <mxGeometry y="658" width="319" height="26" as="geometry" />
        </mxCell>
        <mxCell id="Bn6dSkrqQOUkgblqPXmy-8" value="+ resetWorkerPos() : void" style="text;strokeColor=none;fillColor=none;align=left;verticalAlign=top;spacingLeft=4;spacingRight=4;overflow=hidden;rotatable=0;points=[[0,0.5],[1,0.5]];portConstraint=eastwest;" parent="qDY2ekXkH5HiKyhQ4_CK-49" vertex="1">
          <mxGeometry y="684" width="319" height="26" as="geometry" />
        </mxCell>
        <mxCell id="d9iUq7tpXGbD1R2bJNIy-49" value="ZeusTurn" style="swimlane;fontStyle=1;align=center;verticalAlign=top;childLayout=stackLayout;horizontal=1;startSize=26;horizontalStack=0;resizeParent=1;resizeParentMax=0;resizeLast=0;collapsible=1;marginBottom=0;" vertex="1" parent="1">
          <mxGeometry x="1676" y="1660" width="227" height="112" as="geometry" />
        </mxCell>
        <mxCell id="d9iUq7tpXGbD1R2bJNIy-50" value="" style="line;strokeWidth=1;fillColor=none;align=left;verticalAlign=middle;spacingTop=-1;spacingLeft=3;spacingRight=3;rotatable=0;labelPosition=right;points=[];portConstraint=eastwest;" vertex="1" parent="d9iUq7tpXGbD1R2bJNIy-49">
          <mxGeometry y="26" width="227" height="8" as="geometry" />
        </mxCell>
        <mxCell id="d9iUq7tpXGbD1R2bJNIy-51" value="+ZeusTurn(Turn)" style="text;strokeColor=none;fillColor=none;align=left;verticalAlign=top;spacingLeft=4;spacingRight=4;overflow=hidden;rotatable=0;points=[[0,0.5],[1,0.5]];portConstraint=eastwest;" vertex="1" parent="d9iUq7tpXGbD1R2bJNIy-49">
          <mxGeometry y="34" width="227" height="26" as="geometry" />
        </mxCell>
        <mxCell id="d9iUq7tpXGbD1R2bJNIy-52" value="+ build(Match, Worker, Coordinate) : boolean" style="text;strokeColor=none;fillColor=none;align=left;verticalAlign=top;spacingLeft=4;spacingRight=4;overflow=hidden;rotatable=0;points=[[0,0.5],[1,0.5]];portConstraint=eastwest;" vertex="1" parent="d9iUq7tpXGbD1R2bJNIy-49">
          <mxGeometry y="60" width="227" height="26" as="geometry" />
        </mxCell>
        <mxCell id="d9iUq7tpXGbD1R2bJNIy-53" value="+ whereCanBuild(Match, ClientHandler, int) : ArrayList&lt;Coordinate&gt;" style="text;strokeColor=none;fillColor=none;align=left;verticalAlign=top;spacingLeft=4;spacingRight=4;overflow=hidden;rotatable=0;points=[[0,0.5],[1,0.5]];portConstraint=eastwest;" vertex="1" parent="d9iUq7tpXGbD1R2bJNIy-49">
          <mxGeometry y="86" width="227" height="26" as="geometry" />
        </mxCell>
        <mxCell id="d9iUq7tpXGbD1R2bJNIy-6" value="CharonTurn" style="swimlane;fontStyle=1;align=center;verticalAlign=top;childLayout=stackLayout;horizontal=1;startSize=26;horizontalStack=0;resizeParent=1;resizeParentMax=0;resizeLast=0;collapsible=1;marginBottom=0;" vertex="1" parent="1">
          <mxGeometry x="1438" y="1671" width="227" height="112" as="geometry" />
        </mxCell>
        <mxCell id="d9iUq7tpXGbD1R2bJNIy-7" value="" style="line;strokeWidth=1;fillColor=none;align=left;verticalAlign=middle;spacingTop=-1;spacingLeft=3;spacingRight=3;rotatable=0;labelPosition=right;points=[];portConstraint=eastwest;" vertex="1" parent="d9iUq7tpXGbD1R2bJNIy-6">
          <mxGeometry y="26" width="227" height="8" as="geometry" />
        </mxCell>
        <mxCell id="d9iUq7tpXGbD1R2bJNIy-8" value="+ CharonTurn(Turn)" style="text;strokeColor=none;fillColor=none;align=left;verticalAlign=top;spacingLeft=4;spacingRight=4;overflow=hidden;rotatable=0;points=[[0,0.5],[1,0.5]];portConstraint=eastwest;" vertex="1" parent="d9iUq7tpXGbD1R2bJNIy-6">
          <mxGeometry y="34" width="227" height="26" as="geometry" />
        </mxCell>
        <mxCell id="d9iUq7tpXGbD1R2bJNIy-9" value="+ move(Match, ClientHandler, Server, boolean) : boolean" style="text;strokeColor=none;fillColor=none;align=left;verticalAlign=top;spacingLeft=4;spacingRight=4;overflow=hidden;rotatable=0;points=[[0,0.5],[1,0.5]];portConstraint=eastwest;" vertex="1" parent="d9iUq7tpXGbD1R2bJNIy-6">
          <mxGeometry y="60" width="227" height="26" as="geometry" />
        </mxCell>
        <mxCell id="d9iUq7tpXGbD1R2bJNIy-10" value="+ whereCanMove(Match, ClientHandler, int, boolean) : ArrayList&lt;Coordinate&gt;" style="text;strokeColor=none;fillColor=none;align=left;verticalAlign=top;spacingLeft=4;spacingRight=4;overflow=hidden;rotatable=0;points=[[0,0.5],[1,0.5]];portConstraint=eastwest;" vertex="1" parent="d9iUq7tpXGbD1R2bJNIy-6">
          <mxGeometry y="86" width="227" height="26" as="geometry" />
        </mxCell>
        <mxCell id="Bn6dSkrqQOUkgblqPXmy-109" value="ApolloTurn" style="swimlane;fontStyle=1;align=center;verticalAlign=top;childLayout=stackLayout;horizontal=1;startSize=26;horizontalStack=0;resizeParent=1;resizeParentMax=0;resizeLast=0;collapsible=1;marginBottom=0;" parent="1" vertex="1">
          <mxGeometry x="-70" y="1340" width="227" height="112" as="geometry" />
        </mxCell>
        <mxCell id="Bn6dSkrqQOUkgblqPXmy-111" value="" style="line;strokeWidth=1;fillColor=none;align=left;verticalAlign=middle;spacingTop=-1;spacingLeft=3;spacingRight=3;rotatable=0;labelPosition=right;points=[];portConstraint=eastwest;" parent="Bn6dSkrqQOUkgblqPXmy-109" vertex="1">
          <mxGeometry y="26" width="227" height="8" as="geometry" />
        </mxCell>
        <mxCell id="Bn6dSkrqQOUkgblqPXmy-112" value="+ ApolloTurn(Turn)" style="text;strokeColor=none;fillColor=none;align=left;verticalAlign=top;spacingLeft=4;spacingRight=4;overflow=hidden;rotatable=0;points=[[0,0.5],[1,0.5]];portConstraint=eastwest;" parent="Bn6dSkrqQOUkgblqPXmy-109" vertex="1">
          <mxGeometry y="34" width="227" height="26" as="geometry" />
        </mxCell>
        <mxCell id="Bn6dSkrqQOUkgblqPXmy-115" value="+ move(Match, ClientHandler, Server, boolean) : boolean" style="text;strokeColor=none;fillColor=none;align=left;verticalAlign=top;spacingLeft=4;spacingRight=4;overflow=hidden;rotatable=0;points=[[0,0.5],[1,0.5]];portConstraint=eastwest;" parent="Bn6dSkrqQOUkgblqPXmy-109" vertex="1">
          <mxGeometry y="60" width="227" height="26" as="geometry" />
        </mxCell>
        <mxCell id="Bn6dSkrqQOUkgblqPXmy-117" value="+ cantMove(Match, Worker, Coordinate, boolean) : boolean" style="text;strokeColor=none;fillColor=none;align=left;verticalAlign=top;spacingLeft=4;spacingRight=4;overflow=hidden;rotatable=0;points=[[0,0.5],[1,0.5]];portConstraint=eastwest;" parent="Bn6dSkrqQOUkgblqPXmy-109" vertex="1">
          <mxGeometry y="86" width="227" height="26" as="geometry" />
        </mxCell>
        <mxCell id="Bn6dSkrqQOUkgblqPXmy-154" value="EphaestusTurn" style="swimlane;fontStyle=1;align=center;verticalAlign=top;childLayout=stackLayout;horizontal=1;startSize=26;horizontalStack=0;resizeParent=1;resizeParentMax=0;resizeLast=0;collapsible=1;marginBottom=0;" parent="1" vertex="1">
          <mxGeometry x="-72" y="1475" width="227" height="86" as="geometry" />
        </mxCell>
        <mxCell id="Bn6dSkrqQOUkgblqPXmy-156" value="" style="line;strokeWidth=1;fillColor=none;align=left;verticalAlign=middle;spacingTop=-1;spacingLeft=3;spacingRight=3;rotatable=0;labelPosition=right;points=[];portConstraint=eastwest;" parent="Bn6dSkrqQOUkgblqPXmy-154" vertex="1">
          <mxGeometry y="26" width="227" height="8" as="geometry" />
        </mxCell>
        <mxCell id="Bn6dSkrqQOUkgblqPXmy-157" value="+ EphaestusTurn(Turn)" style="text;strokeColor=none;fillColor=none;align=left;verticalAlign=top;spacingLeft=4;spacingRight=4;overflow=hidden;rotatable=0;points=[[0,0.5],[1,0.5]];portConstraint=eastwest;" parent="Bn6dSkrqQOUkgblqPXmy-154" vertex="1">
          <mxGeometry y="34" width="227" height="26" as="geometry" />
        </mxCell>
        <mxCell id="Bn6dSkrqQOUkgblqPXmy-159" value="+ build(Match, ClientHandler, Server) : boolean" style="text;strokeColor=none;fillColor=none;align=left;verticalAlign=top;spacingLeft=4;spacingRight=4;overflow=hidden;rotatable=0;points=[[0,0.5],[1,0.5]];portConstraint=eastwest;" parent="Bn6dSkrqQOUkgblqPXmy-154" vertex="1">
          <mxGeometry y="60" width="227" height="26" as="geometry" />
        </mxCell>
        <mxCell id="Bn6dSkrqQOUkgblqPXmy-118" value="ArtemisTurn" style="swimlane;fontStyle=1;align=center;verticalAlign=top;childLayout=stackLayout;horizontal=1;startSize=26;horizontalStack=0;resizeParent=1;resizeParentMax=0;resizeLast=0;collapsible=1;marginBottom=0;" parent="1" vertex="1">
          <mxGeometry x="-76" y="1576" width="227" height="86" as="geometry" />
        </mxCell>
        <mxCell id="Bn6dSkrqQOUkgblqPXmy-120" value="" style="line;strokeWidth=1;fillColor=none;align=left;verticalAlign=middle;spacingTop=-1;spacingLeft=3;spacingRight=3;rotatable=0;labelPosition=right;points=[];portConstraint=eastwest;" parent="Bn6dSkrqQOUkgblqPXmy-118" vertex="1">
          <mxGeometry y="26" width="227" height="8" as="geometry" />
        </mxCell>
        <mxCell id="Bn6dSkrqQOUkgblqPXmy-121" value="+ ArtemisTurn(Turn)" style="text;strokeColor=none;fillColor=none;align=left;verticalAlign=top;spacingLeft=4;spacingRight=4;overflow=hidden;rotatable=0;points=[[0,0.5],[1,0.5]];portConstraint=eastwest;" parent="Bn6dSkrqQOUkgblqPXmy-118" vertex="1">
          <mxGeometry y="34" width="227" height="26" as="geometry" />
        </mxCell>
        <mxCell id="Bn6dSkrqQOUkgblqPXmy-124" value="+ move(Match, ClientHandler, Server, boolean) : boolean" style="text;strokeColor=none;fillColor=none;align=left;verticalAlign=top;spacingLeft=4;spacingRight=4;overflow=hidden;rotatable=0;points=[[0,0.5],[1,0.5]];portConstraint=eastwest;" parent="Bn6dSkrqQOUkgblqPXmy-118" vertex="1">
          <mxGeometry y="60" width="227" height="26" as="geometry" />
        </mxCell>
        <mxCell id="Bn6dSkrqQOUkgblqPXmy-127" value="AthenaTurn" style="swimlane;fontStyle=1;align=center;verticalAlign=top;childLayout=stackLayout;horizontal=1;startSize=26;horizontalStack=0;resizeParent=1;resizeParentMax=0;resizeLast=0;collapsible=1;marginBottom=0;" parent="1" vertex="1">
          <mxGeometry x="-78" y="1690" width="227" height="60" as="geometry" />
        </mxCell>
        <mxCell id="Bn6dSkrqQOUkgblqPXmy-129" value="" style="line;strokeWidth=1;fillColor=none;align=left;verticalAlign=middle;spacingTop=-1;spacingLeft=3;spacingRight=3;rotatable=0;labelPosition=right;points=[];portConstraint=eastwest;" parent="Bn6dSkrqQOUkgblqPXmy-127" vertex="1">
          <mxGeometry y="26" width="227" height="8" as="geometry" />
        </mxCell>
        <mxCell id="Bn6dSkrqQOUkgblqPXmy-130" value="+ AthenaTurn(Turn)" style="text;strokeColor=none;fillColor=none;align=left;verticalAlign=top;spacingLeft=4;spacingRight=4;overflow=hidden;rotatable=0;points=[[0,0.5],[1,0.5]];portConstraint=eastwest;" parent="Bn6dSkrqQOUkgblqPXmy-127" vertex="1">
          <mxGeometry y="34" width="227" height="26" as="geometry" />
        </mxCell>
        <mxCell id="d9iUq7tpXGbD1R2bJNIy-28" value="PoseidonTurn" style="swimlane;fontStyle=1;align=center;verticalAlign=top;childLayout=stackLayout;horizontal=1;startSize=26;horizontalStack=0;resizeParent=1;resizeParentMax=0;resizeLast=0;collapsible=1;marginBottom=0;" vertex="1" parent="1">
          <mxGeometry x="698" y="1694" width="227" height="86" as="geometry" />
        </mxCell>
        <mxCell id="d9iUq7tpXGbD1R2bJNIy-29" value="" style="line;strokeWidth=1;fillColor=none;align=left;verticalAlign=middle;spacingTop=-1;spacingLeft=3;spacingRight=3;rotatable=0;labelPosition=right;points=[];portConstraint=eastwest;" vertex="1" parent="d9iUq7tpXGbD1R2bJNIy-28">
          <mxGeometry y="26" width="227" height="8" as="geometry" />
        </mxCell>
        <mxCell id="d9iUq7tpXGbD1R2bJNIy-30" value="PoseidonTurn(Turn)" style="text;strokeColor=none;fillColor=none;align=left;verticalAlign=top;spacingLeft=4;spacingRight=4;overflow=hidden;rotatable=0;points=[[0,0.5],[1,0.5]];portConstraint=eastwest;" vertex="1" parent="d9iUq7tpXGbD1R2bJNIy-28">
          <mxGeometry y="34" width="227" height="26" as="geometry" />
        </mxCell>
        <mxCell id="d9iUq7tpXGbD1R2bJNIy-31" value="+ build(Match, Worker, Coordinate) : boolean" style="text;strokeColor=none;fillColor=none;align=left;verticalAlign=top;spacingLeft=4;spacingRight=4;overflow=hidden;rotatable=0;points=[[0,0.5],[1,0.5]];portConstraint=eastwest;" vertex="1" parent="d9iUq7tpXGbD1R2bJNIy-28">
          <mxGeometry y="60" width="227" height="26" as="geometry" />
        </mxCell>
        <mxCell id="d9iUq7tpXGbD1R2bJNIy-22" value="HestiaTurn" style="swimlane;fontStyle=1;align=center;verticalAlign=top;childLayout=stackLayout;horizontal=1;startSize=26;horizontalStack=0;resizeParent=1;resizeParentMax=0;resizeLast=0;collapsible=1;marginBottom=0;" vertex="1" parent="1">
          <mxGeometry x="182" y="1697" width="227" height="138" as="geometry" />
        </mxCell>
        <mxCell id="d9iUq7tpXGbD1R2bJNIy-23" value="" style="line;strokeWidth=1;fillColor=none;align=left;verticalAlign=middle;spacingTop=-1;spacingLeft=3;spacingRight=3;rotatable=0;labelPosition=right;points=[];portConstraint=eastwest;" vertex="1" parent="d9iUq7tpXGbD1R2bJNIy-22">
          <mxGeometry y="26" width="227" height="8" as="geometry" />
        </mxCell>
        <mxCell id="d9iUq7tpXGbD1R2bJNIy-24" value="+ HestiaTurn(Turn)" style="text;strokeColor=none;fillColor=none;align=left;verticalAlign=top;spacingLeft=4;spacingRight=4;overflow=hidden;rotatable=0;points=[[0,0.5],[1,0.5]];portConstraint=eastwest;" vertex="1" parent="d9iUq7tpXGbD1R2bJNIy-22">
          <mxGeometry y="34" width="227" height="26" as="geometry" />
        </mxCell>
        <mxCell id="d9iUq7tpXGbD1R2bJNIy-25" value="+ build(Match, ClientHandler, Server) : boolean" style="text;strokeColor=none;fillColor=none;align=left;verticalAlign=top;spacingLeft=4;spacingRight=4;overflow=hidden;rotatable=0;points=[[0,0.5],[1,0.5]];portConstraint=eastwest;" vertex="1" parent="d9iUq7tpXGbD1R2bJNIy-22">
          <mxGeometry y="60" width="227" height="26" as="geometry" />
        </mxCell>
        <mxCell id="d9iUq7tpXGbD1R2bJNIy-26" value="+ whereCanBuild(Match, ClientHandler, int) : ArrayList&lt;Coordinate&gt;" style="text;strokeColor=none;fillColor=none;align=left;verticalAlign=top;spacingLeft=4;spacingRight=4;overflow=hidden;rotatable=0;points=[[0,0.5],[1,0.5]];portConstraint=eastwest;" vertex="1" parent="d9iUq7tpXGbD1R2bJNIy-22">
          <mxGeometry y="86" width="227" height="26" as="geometry" />
        </mxCell>
        <mxCell id="d9iUq7tpXGbD1R2bJNIy-27" value="+ canBuildIn(Match, Worker, Coordinate) : boolean" style="text;strokeColor=none;fillColor=none;align=left;verticalAlign=top;spacingLeft=4;spacingRight=4;overflow=hidden;rotatable=0;points=[[0,0.5],[1,0.5]];portConstraint=eastwest;" vertex="1" parent="d9iUq7tpXGbD1R2bJNIy-22">
          <mxGeometry y="112" width="227" height="26" as="geometry" />
        </mxCell>
        <mxCell id="Bn6dSkrqQOUkgblqPXmy-136" value="AtlasTurn" style="swimlane;fontStyle=1;align=center;verticalAlign=top;childLayout=stackLayout;horizontal=1;startSize=26;horizontalStack=0;resizeParent=1;resizeParentMax=0;resizeLast=0;collapsible=1;marginBottom=0;" parent="1" vertex="1">
          <mxGeometry x="440" y="1697" width="227" height="86" as="geometry" />
        </mxCell>
        <mxCell id="Bn6dSkrqQOUkgblqPXmy-138" value="" style="line;strokeWidth=1;fillColor=none;align=left;verticalAlign=middle;spacingTop=-1;spacingLeft=3;spacingRight=3;rotatable=0;labelPosition=right;points=[];portConstraint=eastwest;" parent="Bn6dSkrqQOUkgblqPXmy-136" vertex="1">
          <mxGeometry y="26" width="227" height="8" as="geometry" />
        </mxCell>
        <mxCell id="Bn6dSkrqQOUkgblqPXmy-139" value="+ AtlasTurn(Turn)" style="text;strokeColor=none;fillColor=none;align=left;verticalAlign=top;spacingLeft=4;spacingRight=4;overflow=hidden;rotatable=0;points=[[0,0.5],[1,0.5]];portConstraint=eastwest;" parent="Bn6dSkrqQOUkgblqPXmy-136" vertex="1">
          <mxGeometry y="34" width="227" height="26" as="geometry" />
        </mxCell>
        <mxCell id="Bn6dSkrqQOUkgblqPXmy-141" value="+ build(Match, ClientHandler, Server) : boolean" style="text;strokeColor=none;fillColor=none;align=left;verticalAlign=top;spacingLeft=4;spacingRight=4;overflow=hidden;rotatable=0;points=[[0,0.5],[1,0.5]];portConstraint=eastwest;" parent="Bn6dSkrqQOUkgblqPXmy-136" vertex="1">
          <mxGeometry y="60" width="227" height="26" as="geometry" />
        </mxCell>
        <mxCell id="d9iUq7tpXGbD1R2bJNIy-54" value="Extends" style="endArrow=block;endSize=16;endFill=0;html=1;entryX=0.297;entryY=1.295;entryDx=0;entryDy=0;entryPerimeter=0;exitX=0.75;exitY=0;exitDx=0;exitDy=0;" edge="1" parent="1" source="d9iUq7tpXGbD1R2bJNIy-22" target="Bn6dSkrqQOUkgblqPXmy-101">
          <mxGeometry width="160" relative="1" as="geometry">
            <mxPoint x="616" y="1680.33" as="sourcePoint" />
            <mxPoint x="653.1229999999996" y="1318.9959999999996" as="targetPoint" />
          </mxGeometry>
        </mxCell>
        <mxCell id="d9iUq7tpXGbD1R2bJNIy-55" value="Extends" style="endArrow=block;endSize=16;endFill=0;html=1;entryX=0.49;entryY=1.038;entryDx=0;entryDy=0;entryPerimeter=0;exitX=0.5;exitY=0;exitDx=0;exitDy=0;" edge="1" parent="1" source="d9iUq7tpXGbD1R2bJNIy-28" target="Bn6dSkrqQOUkgblqPXmy-101">
          <mxGeometry width="160" relative="1" as="geometry">
            <mxPoint x="1060.5" y="1694" as="sourcePoint" />
            <mxPoint x="1097.6229999999996" y="1332.6659999999997" as="targetPoint" />
          </mxGeometry>
        </mxCell>
        <mxCell id="d9iUq7tpXGbD1R2bJNIy-56" value="Extends" style="endArrow=block;endSize=16;endFill=0;html=1;entryX=0.637;entryY=0.987;entryDx=0;entryDy=0;entryPerimeter=0;exitX=0.25;exitY=0;exitDx=0;exitDy=0;" edge="1" parent="1" source="d9iUq7tpXGbD1R2bJNIy-33" target="Bn6dSkrqQOUkgblqPXmy-101">
          <mxGeometry width="160" relative="1" as="geometry">
            <mxPoint x="1060.5" y="1694" as="sourcePoint" />
            <mxPoint x="1097.6229999999996" y="1332.6659999999997" as="targetPoint" />
          </mxGeometry>
        </mxCell>
        <mxCell id="d9iUq7tpXGbD1R2bJNIy-57" value="Extends" style="endArrow=block;endSize=16;endFill=0;html=1;entryX=0.755;entryY=0.987;entryDx=0;entryDy=0;entryPerimeter=0;exitX=0.25;exitY=0;exitDx=0;exitDy=0;" edge="1" parent="1" source="d9iUq7tpXGbD1R2bJNIy-6" target="Bn6dSkrqQOUkgblqPXmy-101">
          <mxGeometry width="160" relative="1" as="geometry">
            <mxPoint x="1265.75" y="1691.0000000000005" as="sourcePoint" />
            <mxPoint x="1117.5990000000002" y="1328.6619999999998" as="targetPoint" />
          </mxGeometry>
        </mxCell>
        <mxCell id="d9iUq7tpXGbD1R2bJNIy-58" value="Extends" style="endArrow=block;endSize=16;endFill=0;html=1;entryX=0.907;entryY=1.141;entryDx=0;entryDy=0;entryPerimeter=0;exitX=0;exitY=0;exitDx=0;exitDy=0;" edge="1" parent="1" source="d9iUq7tpXGbD1R2bJNIy-49" target="Bn6dSkrqQOUkgblqPXmy-101">
          <mxGeometry width="160" relative="1" as="geometry">
            <mxPoint x="1504.75" y="1681.0000000000005" as="sourcePoint" />
            <mxPoint x="1144.3850000000002" y="1328.6619999999998" as="targetPoint" />
          </mxGeometry>
        </mxCell>
      </root>
    </mxGraphModel>
  </diagram>
</mxfile>
